# https://github.com/mikedh/trimesh

o geometry_0
v 0.00589272 -0.04092634 0.02991188
v 0.00792147 -0.04022675 0.02354955
v -0.01190607 -0.04069514 0.03417889
v -0.00003878 -0.04030254 0.02275578
v 0.01117197 -0.04025674 0.03023686
v 0.00786989 -0.03921635 0.06942965
v -0.01159392 -0.04017386 0.06062427
v -0.01340534 -0.04003754 0.05109418
v -0.01193294 -0.03931123 0.02125355
v -0.01449412 -0.03930796 0.03535126
v -0.00082696 -0.03927306 0.07845764
v -0.01490621 -0.03810399 0.05693085
v 0.01629219 -0.03645507 0.02503065
v 0.01244853 -0.03823158 0.06100125
v -0.00563287 -0.03813016 0.09908748
v -0.00761218 -0.03749764 0.10018592
v -0.02184133 -0.02577200 0.03023686
v -0.01388324 -0.03855330 0.02264529
v 0.00317143 -0.03787551 0.01546725
v 0.01048319 -0.03787715 0.01739358
v 0.01646196 -0.03727081 0.03195276
v 0.00859628 -0.03726208 0.10041990
v -0.01193294 -0.03791859 0.08035716
v -0.02183865 -0.02793130 0.04631533
v 0.01675962 -0.03354983 0.01871301
v 0.01377990 -0.03458368 0.10015991
v -0.00356759 -0.03337971 0.11765693
v -0.02113858 -0.02669679 0.06952064
v -0.02260856 -0.02469017 0.03647651
v -0.01060695 -0.03642889 0.01410802
v -0.01321595 -0.03617153 0.01582392
v 0.01407217 -0.03355855 0.01411127
v -0.00313347 -0.02826719 0.12167370
v -0.00680627 -0.02824974 0.12104324
v -0.00598747 -0.03199252 0.11759193
v -0.02179083 -0.02172605 0.02434819
v 0.00765175 -0.03407221 0.01168528
v 0.00564128 -0.03303945 0.11598003
v -0.01852958 -0.02542303 0.09002049
v -0.00317216 0.01127193 0.12955126
v -0.00614650 0.01344432 0.12955776
v -0.00737149 0.01345740 0.12827083
v -0.02259244 -0.02469017 0.04801336
v -0.02185745 -0.02469017 0.06450618
v -0.02068432 -0.02150685 0.01909080
v -0.02262360 0.02734233 0.03780243
v -0.01126564 -0.03328374 0.01076396
v 0.01914296 -0.03365671 0.03321369
v 0.01555935 -0.03174824 0.10147285
v 0.01647701 -0.02879502 0.10249978
v -0.01515335 -0.02374794 0.10492415
v -0.02239902 0.02799667 0.05246723
v -0.02175752 0.02291032 0.02237880
v -0.01260238 -0.03205359 0.01072496
v 0.01223362 -0.01166024 -0.00155610
v 0.01644477 -0.00763827 0.10899942
v 0.00599158 0.00609834 0.12426056
v -0.02041380 -0.02431611 0.07959995
v -0.00323233 0.01560797 0.12949926
v -0.01838882 -0.00064782 0.00121600
v -0.01784187 -0.00298379 0.00022155
v -0.02184778 0.02680142 0.02636308
v -0.02200950 0.02976009 0.03814854
v 0.00103147 -0.01750124 0.00016956
v 0.01116445 -0.01085323 -0.00228731
v 0.01653074 -0.03080600 0.01461174
v 0.01912684 -0.02828464 0.01847252
v 0.01575491 0.00823147 0.11163177
v 0.02063980 -0.02903494 0.03563805
v 0.02115129 -0.01546845 0.04174121
v 0.02068708 0.02668800 0.06811672
v -0.01883314 -0.02337278 0.08967113
v 0.00560904 0.02010106 0.12394857
v -0.00365785 0.03540807 0.12290213
v -0.00667948 0.03538190 0.12223267
v -0.01392622 0.03009925 0.10716652
v -0.01735564 0.02885275 0.09493583
v -0.02136423 0.02964122 0.06845471
v -0.02063730 0.02264259 0.01789081
v -0.01124415 -0.01085759 -0.00226131
v 0.01750508 -0.00373300 0.00029630
v 0.01182852 0.00955322 -0.00304127
v 0.01644047 0.01950780 0.10964938
v 0.00597869 0.04062964 0.11635701
v -0.00600466 0.03925118 0.11766993
v -0.01653092 0.03133813 0.09650712
v -0.02048096 0.03133813 0.07416138
v -0.01731588 0.00563268 0.00039704
v -0.01508029 0.04200374 0.04423382
v -0.01190178 0.00955322 -0.00301527
v 0.01258930 0.01167326 -0.00254730
v 0.01866264 -0.00096845 0.00218444
v 0.02073436 -0.02339023 0.02462118
v 0.02104813 0.01877494 0.02592110
v 0.02040770 0.03136430 0.07010561
v 0.01646626 0.03279511 0.10574960
v -0.01949990 0.02948854 0.08395633
v 0.01531005 0.03694793 0.10467067
v 0.01277197 0.04080850 0.10285726
v 0.00827177 0.04322516 0.10181732
v -0.00187410 0.04086084 0.11766343
v -0.01389076 0.03956308 0.02257704
v -0.01160950 0.01190009 -0.00269028
v 0.01777076 0.00438399 0.00022155
v 0.02043779 0.02896508 0.01710760
v 0.01363913 0.04525796 0.06877319
v 0.01017372 0.04729947 0.06598485
v -0.00652259 0.04451638 0.09887299
v -0.01325839 0.04254466 0.03281234
v -0.01413039 0.04350435 0.05692435
v 0.00066451 0.01692100 -0.00117262
v 0.01592899 0.04071689 0.01498222
v 0.01907956 0.03527284 0.01471573
v 0.01917842 0.03687814 0.07075558
v 0.01727862 0.04086084 0.07075558
v 0.00621723 0.04808467 0.05759057
v -0.00234583 0.04446185 0.10152809
v -0.00596598 0.04558948 0.08589972
v -0.01057149 0.04449020 0.08423256
v -0.01244335 0.03919884 0.01873251
v -0.01327129 0.03485080 0.01352305
v -0.01128713 0.03004691 0.00678618
v -0.00647531 0.03197065 0.00743614
v 0.00523510 0.03124216 0.00683818
v 0.01243886 0.04394929 0.01658113
v 0.00993732 0.04586430 0.01978545
v 0.00502449 0.04729947 0.02868995
v -0.01266470 0.04454473 0.05485747
v -0.00869963 0.03530774 0.01071196
f 1 4 2
f 1 3 4
f 1 2 5
f 1 5 6
f 1 7 3
f 4 3 9
f 3 7 8
f 3 8 10
f 1 11 7
f 8 12 10
f 3 10 9
f 2 13 5
f 5 14 6
f 6 11 1
f 7 15 16
f 7 16 8
f 4 9 19
f 4 19 2
f 2 19 20
f 5 13 21
f 5 21 14
f 6 14 22
f 8 16 23
f 15 7 11
f 9 10 18
f 10 24 17
f 10 17 18
f 2 20 13
f 20 25 13
f 14 26 22
f 6 22 11
f 23 12 8
f 15 27 16
f 24 10 12
f 24 12 28
f 9 30 19
f 9 18 31
f 9 31 30
f 23 28 12
f 27 33 34
f 27 34 35
f 27 35 16
f 24 28 29
f 24 29 17
f 29 36 17
f 19 37 20
f 18 17 31
f 25 20 32
f 21 26 14
f 26 38 22
f 22 38 27
f 22 27 15
f 22 15 11
f 23 16 39
f 33 40 41
f 33 41 34
f 34 41 42
f 28 43 29
f 28 44 43
f 17 36 45
f 30 31 47
f 37 32 20
f 13 48 21
f 26 21 49
f 38 26 49
f 38 49 50
f 23 39 28
f 16 35 39
f 33 27 38
f 42 51 34
f 34 51 35
f 43 46 29
f 19 30 47
f 19 47 37
f 31 54 47
f 37 55 32
f 48 49 21
f 38 50 56
f 38 56 57
f 28 39 58
f 33 38 57
f 33 57 40
f 40 59 41
f 51 39 35
f 43 52 46
f 44 52 43
f 28 58 44
f 45 36 60
f 45 60 61
f 45 61 54
f 45 54 31
f 17 45 31
f 29 53 36
f 53 46 62
f 53 29 46
f 37 65 55
f 32 66 25
f 25 67 48
f 25 48 13
f 57 56 68
f 49 48 69
f 49 69 50
f 50 69 70
f 50 70 71
f 40 57 59
f 59 57 73
f 59 73 74
f 41 75 42
f 42 75 76
f 42 76 51
f 51 76 77
f 51 72 39
f 44 78 52
f 58 78 44
f 36 53 60
f 60 53 79
f 46 63 62
f 47 64 37
f 54 61 80
f 47 54 80
f 47 80 64
f 37 64 65
f 55 81 66
f 55 66 32
f 65 82 81
f 65 81 55
f 25 66 67
f 56 50 71
f 56 83 68
f 57 68 73
f 39 72 58
f 73 84 74
f 59 74 75
f 59 75 41
f 75 86 76
f 77 72 51
f 52 63 46
f 52 87 63
f 52 78 87
f 53 62 79
f 60 88 61
f 60 79 88
f 63 87 89
f 64 80 65
f 80 90 82
f 80 82 65
f 82 91 81
f 67 81 92
f 48 67 69
f 71 94 95
f 71 95 83
f 71 83 56
f 73 68 83
f 73 83 96
f 73 96 84
f 70 69 93
f 72 77 97
f 72 97 58
f 84 96 98
f 84 98 99
f 84 99 100
f 75 74 101
f 75 101 85
f 75 85 86
f 61 88 90
f 61 90 80
f 63 102 62
f 63 89 102
f 82 90 103
f 82 103 91
f 91 104 81
f 81 104 92
f 67 66 81
f 67 93 69
f 94 71 70
f 95 94 105
f 95 96 83
f 93 105 94
f 100 106 107
f 84 100 101
f 74 84 101
f 101 108 85
f 86 77 76
f 78 58 97
f 78 97 87
f 62 102 79
f 89 87 110
f 89 109 102
f 103 111 91
f 91 112 113
f 91 113 104
f 104 113 105
f 104 105 92
f 67 92 93
f 95 114 96
f 93 92 105
f 94 70 93
f 98 96 114
f 98 114 115
f 98 115 99
f 99 115 106
f 99 106 100
f 107 116 117
f 107 117 100
f 101 100 117
f 101 117 108
f 108 117 118
f 85 119 86
f 86 87 97
f 102 120 121
f 102 121 79
f 88 103 90
f 79 121 122
f 79 122 88
f 88 122 103
f 89 110 109
f 103 122 111
f 111 122 123
f 111 123 124
f 91 111 124
f 91 124 112
f 112 124 125
f 113 115 114
f 105 113 95
f 95 113 114
f 97 77 86
f 115 113 112
f 106 115 112
f 106 112 125
f 106 125 126
f 106 126 107
f 107 126 127
f 107 127 116
f 116 118 117
f 108 119 85
f 86 119 87
f 87 119 110
f 109 120 102
f 110 128 109
f 123 125 124
f 116 127 128
f 116 128 118
f 108 118 119
f 109 128 127
f 123 129 125
f 125 129 126
f 120 109 127
f 120 127 126
f 129 120 126
f 120 129 121
f 121 129 122
f 110 119 128
f 122 129 123
f 118 128 119

