# https://github.com/mikedh/trimesh

o geometry_0
v -0.01199070 -0.04249005 0.07760665
v -0.01458545 -0.04127274 0.07602745
v -0.00398838 -0.04229224 0.10039064
v 0.00638246 -0.04212920 0.05843509
v -0.01242134 -0.04159228 0.05932142
v 0.00958502 -0.04185531 0.05843509
v -0.01360390 -0.04085483 0.09659562
v -0.02239152 -0.02826486 0.08668708
v -0.02239152 -0.02826486 0.06713652
v -0.00558558 -0.04169880 0.12794383
v 0.01518882 -0.03942938 0.06003009
v 0.01120402 -0.04104667 0.09628865
v 0.00811866 -0.04107275 0.12812544
v -0.01121118 -0.04105536 0.11369150
v -0.01435105 -0.03936851 0.05308159
v 0.00335298 -0.04086189 0.04995081
v 0.00992845 -0.03958588 0.04766491
v 0.01436570 -0.03861639 0.05211827
v -0.02024445 -0.03022452 0.10268246
v -0.02770369 -0.00265344 0.02639301
v -0.02720218 -0.00516633 0.00712670
v -0.02486091 -0.01202676 0.00730831
v -0.01276476 -0.03942938 0.04804392
v 0.01427848 -0.03771644 0.12872554
v 0.00664139 -0.02669975 0.00635289
v 0.01443656 -0.02347386 0.00638448
v 0.00461356 -0.03775991 0.14540195
v -0.00329063 -0.03788165 0.14567041
v -0.00785326 -0.04097711 0.12930985
v -0.02181370 -0.02743013 0.09679400
v -0.00079400 -0.02769099 0.00720566
v -0.00400474 -0.03223853 0.15121342
v -0.00654498 -0.03315151 0.15050279
v -0.02781271 0.00128544 0.02640880
v -0.02215644 -0.01631019 0.00672993
v -0.01817777 -0.02086533 0.00720566
v -0.01287379 -0.02428686 0.00636868
v -0.00663765 -0.02669975 0.00635289
v 0.00559477 -0.01784813 -0.00087987
v 0.00657598 -0.03666433 0.14424913
v 0.00504965 0.00186366 0.15527199
v -0.01599185 -0.02823878 0.13115752
v -0.02723216 0.00405483 0.00635289
v -0.02181915 0.02692295 0.09679400
v -0.00470589 -0.01974367 -0.00028570
v 0.01812973 -0.03604046 0.05789027
v 0.01602285 -0.03470794 0.13118911
v 0.01609236 -0.00867698 0.14008003
v 0.00572287 0.01614971 0.15451397
v -0.00300172 0.00667205 0.16010436
v -0.00681209 0.00882844 0.15960690
v -0.01865679 -0.02582154 0.12045248
v -0.02083794 0.02787941 0.10600077
v -0.01388634 -0.01651344 0.00062037
v 0.02010578 -0.01875242 0.00666873
v 0.01606101 0.01092396 0.14169082
v 0.01673696 -0.03223853 0.13032053
v 0.00508781 0.03603541 0.14890778
v -0.00313255 0.01176738 0.16000961
v -0.00641960 0.01174130 0.15996222
v -0.01508151 -0.02582154 0.13513711
v -0.02686830 0.00708724 0.00881645
v -0.01953784 0.02492090 0.11572078
v -0.01758360 0.02773159 0.12477753
v -0.01958690 -0.00584889 -0.00035873
v 0.02041104 -0.03223853 0.06323588
v 0.01663338 -0.01372013 0.00063222
v 0.01662793 -0.00984864 0.13831131
v -0.00343236 0.03162700 0.15388228
v 0.01609917 0.02963581 0.13769543
v 0.01598470 0.03253998 0.13595830
v 0.01362707 0.03656147 0.13437121
v 0.00964499 0.03939607 0.13380268
v -0.00663765 0.03134006 0.15377174
v -0.01439466 0.02613169 0.13756908
v -0.02248420 0.02793158 0.06961587
v -0.01923530 0.02940974 0.11225443
v -0.01282745 0.04215894 0.09988529
v -0.01684070 0.03772226 0.08068018
v 0.02399519 -0.01386143 0.00710301
v 0.01663066 0.02811635 0.13634521
v 0.02720865 -0.00592715 0.02724578
v 0.02784644 -0.00024925 0.02639301
v 0.02641823 -0.00834004 0.00778207
v 0.01927175 0.03437465 0.10251073
v 0.01604466 0.04060034 0.10243177
v 0.01283392 0.04375666 0.10078939
v -0.00063046 0.03734402 0.14878145
v 0.00240447 0.04085032 0.13234192
v -0.00565099 0.03499417 0.15015931
v -0.02482275 0.01180216 0.00636868
v -0.01897637 0.00613296 -0.00057983
v -0.01678773 -0.00824874 -0.00087987
v 0.01839411 0.00453306 -0.00087987
v 0.01948980 -0.00664884 -0.00029556
v 0.02080353 0.02630559 0.10077360
v 0.02723590 0.00405483 0.00635289
v 0.02717049 0.00604601 0.02639301
v 0.01927175 0.03436595 0.04625942
v 0.00971585 0.04538265 0.09772573
v -0.00641960 0.04054817 0.13436331
v -0.02324463 0.01503457 0.00730831
v -0.00959559 0.04013406 0.12534998
v -0.01285914 0.04249696 0.08440612
v 0.02647002 -0.00693578 0.00632920
v 0.02673985 0.00773286 0.00881645
v 0.01604466 0.04059164 0.04633838
v 0.01282302 0.04374797 0.04925991
v 0.00959320 0.04535656 0.05115496
v 0.00558387 0.04628694 0.08722401
v -0.01756724 0.02131460 0.00647922
v -0.01781800 0.01048920 -0.00021661
v 0.02482376 0.01181086 0.00636868
v 0.01918180 0.01971905 0.00644764
v 0.01275760 0.02450571 0.00649502
v 0.00827674 0.02620994 0.00632130
v -0.00558558 0.04251326 0.12071896
v -0.01434015 0.04046122 0.06111974
v -0.00959491 0.04294150 0.10498416
v -0.00639371 0.01773005 -0.00082855
v 0.00000187 0.02766203 0.00676348
v 0.00558932 0.04622607 0.06001430
v 0.00399758 0.02011468 -0.00037453
v 0.01761868 0.01222822 0.00061445
v -0.00826755 0.02620994 0.00632130
v -0.01274841 0.04051339 0.05605049
v -0.01279747 0.04212198 0.06716810
v -0.01007529 0.01910061 0.00066183
v -0.00239392 0.02147546 0.00065195
f 1 4 3
f 1 2 5
f 4 6 3
f 1 7 2
f 5 4 1
f 3 10 1
f 2 7 8
f 2 8 9
f 6 11 12
f 3 13 10
f 3 6 13
f 1 14 7
f 2 9 15
f 4 16 6
f 6 16 17
f 6 17 18
f 8 7 19
f 2 15 5
f 9 20 21
f 9 21 22
f 5 23 16
f 5 16 4
f 12 24 13
f 17 25 26
f 13 27 28
f 13 28 10
f 10 28 29
f 10 14 1
f 8 20 9
f 5 15 23
f 23 31 16
f 6 18 11
f 12 11 24
f 13 6 12
f 16 31 25
f 16 25 17
f 26 18 17
f 27 32 33
f 27 33 28
f 29 14 10
f 30 34 20
f 30 20 8
f 20 34 21
f 9 22 15
f 22 35 15
f 23 15 35
f 23 35 36
f 23 36 37
f 23 37 38
f 23 38 31
f 13 24 27
f 31 38 25
f 26 25 39
f 27 24 40
f 32 27 41
f 29 28 33
f 7 14 19
f 8 19 30
f 34 43 21
f 34 30 44
f 36 35 37
f 11 46 24
f 40 41 27
f 40 24 47
f 40 47 48
f 40 48 41
f 41 50 32
f 33 32 51
f 32 50 51
f 33 42 29
f 14 42 19
f 19 42 30
f 42 52 30
f 37 45 38
f 11 18 46
f 18 55 46
f 38 45 25
f 25 45 39
f 18 26 55
f 41 48 56
f 47 57 48
f 41 49 50
f 50 49 59
f 51 50 60
f 51 61 33
f 33 61 42
f 42 14 29
f 43 34 62
f 30 53 44
f 53 63 64
f 22 21 65
f 35 22 65
f 35 54 37
f 54 45 37
f 24 46 66
f 39 67 26
f 55 26 67
f 41 56 49
f 24 66 47
f 47 66 57
f 49 69 59
f 49 58 69
f 49 56 70
f 49 70 58
f 58 70 71
f 58 71 72
f 58 72 73
f 59 60 50
f 51 60 74
f 51 74 75
f 30 52 53
f 52 63 53
f 34 44 76
f 53 77 78
f 44 53 79
f 44 79 76
f 65 54 35
f 46 55 80
f 48 68 56
f 56 68 81
f 57 66 82
f 57 82 83
f 66 84 82
f 57 83 68
f 57 68 48
f 59 69 60
f 56 81 70
f 70 81 71
f 71 81 85
f 71 85 86
f 71 86 72
f 72 86 87
f 72 87 73
f 58 73 89
f 58 89 88
f 58 88 69
f 60 69 74
f 51 75 61
f 61 75 52
f 61 52 42
f 52 64 63
f 34 76 62
f 43 62 91
f 43 92 21
f 77 53 64
f 78 79 53
f 21 92 65
f 54 65 93
f 54 93 45
f 45 93 39
f 55 67 80
f 46 80 84
f 46 84 66
f 39 93 94
f 67 39 95
f 68 83 96
f 68 96 81
f 81 96 85
f 85 98 106
f 85 99 86
f 87 100 73
f 88 89 101
f 73 100 89
f 69 88 90
f 69 90 74
f 75 74 64
f 75 64 52
f 43 91 92
f 78 77 103
f 78 104 79
f 84 80 105
f 94 95 39
f 67 95 80
f 96 83 98
f 96 98 85
f 82 84 83
f 83 84 97
f 85 106 99
f 86 99 107
f 86 107 87
f 87 107 108
f 87 108 109
f 87 109 100
f 100 109 110
f 90 101 103
f 90 103 64
f 90 64 74
f 62 76 91
f 91 102 111
f 91 76 102
f 77 64 103
f 65 92 93
f 98 83 106
f 97 106 83
f 106 97 113
f 99 106 113
f 99 113 107
f 107 114 115
f 107 115 108
f 108 115 116
f 100 110 117
f 100 117 89
f 88 101 90
f 89 117 101
f 76 79 118
f 102 76 118
f 91 112 92
f 93 92 120
f 93 120 94
f 80 95 105
f 84 105 97
f 107 113 114
f 108 116 109
f 109 116 121
f 109 122 110
f 110 119 117
f 117 119 78
f 117 78 101
f 102 118 111
f 111 112 91
f 103 101 78
f 78 119 104
f 92 112 120
f 94 120 123
f 95 94 105
f 97 94 113
f 113 124 114
f 115 114 123
f 109 121 125
f 122 109 126
f 122 104 119
f 122 119 110
f 79 104 127
f 79 127 118
f 120 112 128
f 120 129 123
f 115 123 116
f 109 125 126
f 122 126 127
f 127 126 118
f 122 127 104
f 118 126 111
f 128 129 120
f 94 123 124
f 94 97 105
f 113 94 124
f 114 124 123
f 116 123 121
f 121 123 129
f 121 129 125
f 126 125 111
f 112 111 128
f 125 128 111
f 129 128 125

