# https://github.com/mikedh/trimesh

o geometry_0
v 0.01080300 0.00119793 0.02055285
v 0.01062064 0.00021236 0.02131725
v 0.01073823 0.00045914 0.00939252
v 0.01068881 0.00246917 0.02097734
v 0.01071863 -0.00210490 0.02076753
v 0.01068114 0.00054114 0.00887858
v 0.01067176 0.00202643 0.00921687
v 0.01067006 -0.00192819 0.00922012
v 0.00985624 0.00445418 0.02187592
v 0.00280966 0.00655469 0.02962976
v 0.01042464 -0.00274591 0.02146363
v 0.00261196 -0.00603065 0.02985501
v 0.00784768 0.00514640 -0.00113677
v 0.01001815 0.00432637 0.00770595
v 0.01042719 0.00332616 0.00905748
v 0.01046384 0.00350326 0.02087812
v 0.00280114 -0.00654654 0.02962163
v 0.01038885 -0.00337884 0.00906073
v 0.00784768 -0.00504662 -0.00113677
v 0.00773860 0.00567153 -0.00107171
v 0.00710459 0.00733161 0.02406911
v 0.00194215 0.00613197 0.03033399
v 0.00986306 -0.00430667 0.02188324
v 0.01038501 -0.00356440 0.02113672
v 0.01002710 -0.00424507 0.00788892
v 0.00773860 -0.00557020 -0.00106846
v 0.00742032 0.00522840 -0.00179220
v 0.01008207 0.00446573 0.02120991
v 0.00179899 0.00761034 0.02926382
v 0.00118202 0.00664016 0.03059746
v 0.00854816 0.00647462 0.02250371
v 0.00648762 0.00771968 0.02393412
v 0.00196090 -0.00751056 0.02910281
v 0.00710459 -0.00723028 0.02406911
v 0.00202141 -0.00619543 0.03028845
v 0.00732274 -0.00592055 -0.00142789
v 0.00955159 0.00518913 0.00779540
v 0.00732360 0.00602110 -0.00142789
v 0.00867428 0.00626903 0.00790925
v 0.00674327 -0.00751826 0.02402683
v 0.00836835 -0.00652652 0.02236302
v 0.00079066 -0.00655886 0.03061454
v 0.00991163 -0.00466702 0.02104402
v 0.00941737 -0.00528839 0.00774335
v 0.00867428 -0.00616771 0.00790762
v 0.00720280 -0.00527299 -0.00197395
v 0.00671941 0.00514640 -0.00228825
v 0.00777269 0.00699743 0.00774335
v 0.00934835 0.00563149 0.02055122
v 0.00031622 0.00613197 0.03072432
v 0.00035435 0.00764297 0.02963891
v 0.00800959 0.00693122 0.02252404
v 0.00590303 0.00791679 0.02318110
v 0.00090080 -0.00753135 0.02962163
v 0.00590474 -0.00781547 0.02318761
v 0.00935090 -0.00553479 0.02154169
v 0.00778206 -0.00690150 0.00791087
v 0.00655281 -0.00520985 -0.00232973
v 0.00596481 0.00596604 -0.00228988
v 0.00639559 0.00615661 -0.00179383
v 0.00590303 0.00788907 0.00807514
v 0.00671174 0.00760418 0.00790925
v -0.00119042 0.00663092 0.03059096
v 0.00048154 -0.00603065 0.03071782
v 0.00672623 -0.00751056 0.00807189
v 0.00590474 -0.00778775 0.00807189
v 0.00688814 -0.00606607 -0.00146530
v 0.00596652 -0.00586472 -0.00228907
v -0.00033825 0.00768888 0.02910443
v 0.00573856 -0.00537309 -0.00245577
v -0.00033995 0.00616431 -0.00179708
v -0.00116315 0.00761188 0.00757746
v 0.00557069 0.00547441 -0.00246390
v -0.00494336 0.00234906 0.03076498
v -0.00116656 0.00761188 0.02960211
v -0.00033995 -0.00759372 0.00807514
v -0.00116485 -0.00751056 0.02960211
v -0.00156537 -0.00638408 0.03060722
v -0.00116144 -0.00751056 0.00757746
v -0.00033995 -0.00606453 -0.00179383
v 0.00557239 -0.00607223 -0.00179383
v -0.00343332 0.00552715 0.03062593
v 0.00031963 -0.00537309 -0.00242162
v 0.00007250 0.00547441 -0.00240861
v -0.00094840 0.00547441 -0.00217929
v -0.00182443 0.00597336 -0.00130916
v -0.00231016 0.00737780 0.00774010
v -0.00482321 0.00392598 0.03061861
v -0.00546617 0.00091573 0.03061210
v -0.00463190 -0.00418116 0.03059665
v -0.00347721 -0.00547165 0.03059502
v -0.00313847 0.00695586 0.02960211
v -0.00182443 -0.00587204 -0.00130591
v -0.00058452 -0.00548397 -0.00231753
v -0.00232593 -0.00725569 0.00764740
v -0.00533174 -0.00217170 0.03062958
v -0.00223858 -0.00721026 0.02964114
v -0.00135915 -0.00537309 -0.00197436
v -0.00452154 -0.00593518 0.00336022
v -0.00458545 0.00601532 0.00357734
v -0.00412358 0.00629675 0.02960211
v -0.00479168 0.00565459 0.02961512
v -0.00642614 0.00124644 0.02957934
v -0.00642955 -0.00103809 0.02960861
v -0.00313677 -0.00685453 0.02960536
v -0.00322369 -0.00689765 0.00742133
v -0.00473373 -0.00582122 0.00379772
v -0.00178864 0.00547441 -0.00159866
v -0.00610061 0.00369113 0.00329028
v -0.00544273 0.00498932 0.00329354
v -0.00322369 0.00699743 0.00741482
v -0.00565919 0.00443109 0.02943459
v -0.00618157 0.00311057 0.02948176
v -0.00610743 -0.00326950 0.02961837
v -0.00549387 -0.00464161 0.02943297
v -0.00412187 -0.00619697 0.02960211
v -0.00543421 -0.00487568 0.00330980
v -0.00610061 -0.00358827 0.00329354
v -0.00178864 -0.00537309 -0.00159866
v -0.00405413 0.00647077 0.00725218
v -0.00463488 -0.00572497 0.02944272
v -0.00548194 -0.00494344 0.00379772
v -0.00548194 0.00504322 0.00379772
v -0.00652328 0.00218813 0.00774335
v -0.00652499 -0.00208681 0.00774661
v -0.00618455 0.00363723 0.00758315
v -0.00656930 0.00062276 0.01333490
v -0.00625229 -0.00274283 0.02943297
v -0.00618583 -0.00353360 0.00725056
f 1 2 5
f 1 5 3
f 3 6 7
f 3 5 8
f 1 4 2
f 3 7 1
f 4 9 2
f 2 9 10
f 2 10 12
f 2 11 5
f 3 8 6
f 6 13 7
f 7 14 15
f 4 16 9
f 2 12 11
f 12 17 11
f 8 5 18
f 8 19 6
f 6 19 13
f 1 7 4
f 7 15 4
f 13 20 14
f 13 14 7
f 10 9 21
f 10 22 12
f 17 23 11
f 5 11 24
f 11 23 24
f 8 18 25
f 8 25 19
f 19 25 26
f 20 13 27
f 15 16 4
f 16 28 9
f 10 30 22
f 9 28 21
f 21 32 29
f 21 29 10
f 17 33 34
f 17 34 23
f 17 12 35
f 18 5 24
f 20 37 14
f 20 38 39
f 20 39 37
f 13 19 27
f 27 38 20
f 14 16 15
f 16 14 28
f 28 31 21
f 29 30 10
f 22 35 12
f 33 40 34
f 17 35 42
f 24 23 43
f 25 18 24
f 25 24 43
f 26 25 44
f 26 44 45
f 26 45 36
f 36 46 19
f 36 19 26
f 38 48 39
f 38 27 47
f 27 19 46
f 14 37 28
f 28 37 49
f 35 22 30
f 31 52 21
f 21 52 32
f 40 33 55
f 33 54 55
f 34 41 23
f 23 41 56
f 43 23 56
f 36 45 57
f 46 36 58
f 47 59 38
f 38 60 61
f 38 61 62
f 38 62 48
f 39 49 37
f 28 49 31
f 50 30 63
f 31 39 52
f 32 53 51
f 32 51 29
f 32 61 53
f 33 17 54
f 35 30 42
f 42 30 64
f 17 42 54
f 25 43 44
f 44 43 56
f 45 56 41
f 36 65 66
f 36 66 67
f 36 57 65
f 58 36 68
f 38 59 60
f 62 52 48
f 39 48 52
f 49 39 31
f 46 58 47
f 46 47 27
f 29 51 30
f 50 64 30
f 52 62 32
f 32 62 61
f 53 69 51
f 53 61 69
f 40 57 41
f 40 41 34
f 56 45 44
f 41 57 45
f 65 57 40
f 58 68 70
f 58 70 47
f 61 60 71
f 47 70 73
f 47 73 59
f 30 51 63
f 50 63 74
f 50 74 64
f 51 69 75
f 61 72 69
f 55 54 76
f 55 76 66
f 40 55 65
f 54 42 78
f 65 55 66
f 66 76 79
f 66 79 80
f 66 80 81
f 66 81 67
f 67 81 36
f 36 81 68
f 71 72 61
f 74 63 82
f 76 77 79
f 76 54 77
f 78 77 54
f 70 68 83
f 70 83 73
f 73 83 84
f 60 59 71
f 72 71 86
f 72 86 87
f 74 82 88
f 64 74 90
f 64 90 91
f 72 75 69
f 64 91 78
f 42 64 78
f 80 94 68
f 80 68 81
f 79 95 93
f 79 93 80
f 68 94 83
f 73 71 59
f 71 73 85
f 71 85 86
f 87 75 72
f 63 51 75
f 63 75 92
f 74 88 89
f 89 96 74
f 74 96 90
f 77 78 97
f 93 98 80
f 80 98 94
f 93 95 99
f 83 94 84
f 84 85 73
f 86 100 87
f 75 87 92
f 82 63 92
f 82 92 101
f 82 101 102
f 82 102 88
f 79 77 95
f 77 97 95
f 99 95 106
f 99 106 107
f 94 85 84
f 85 94 98
f 86 109 110
f 86 110 100
f 100 111 87
f 88 102 112
f 89 88 113
f 89 103 104
f 104 96 89
f 96 104 114
f 91 116 105
f 91 105 78
f 92 87 111
f 97 78 105
f 93 99 117
f 93 117 118
f 93 119 98
f 95 97 105
f 95 105 106
f 85 98 108
f 85 108 86
f 86 108 109
f 100 120 111
f 113 103 89
f 90 96 114
f 90 115 116
f 90 116 91
f 92 111 101
f 101 111 120
f 101 120 102
f 102 120 100
f 93 118 119
f 119 118 109
f 119 109 108
f 119 108 98
f 99 107 117
f 107 122 117
f 106 105 116
f 106 116 107
f 107 116 121
f 109 123 110
f 110 123 100
f 100 123 102
f 88 112 113
f 102 123 112
f 90 114 115
f 115 121 116
f 117 122 118
f 122 107 121
f 109 118 125
f 109 125 124
f 109 124 126
f 109 126 123
f 123 126 112
f 103 113 124
f 103 127 104
f 104 125 128
f 104 128 114
f 122 129 118
f 122 115 129
f 121 115 122
f 125 127 124
f 124 113 126
f 113 112 126
f 103 124 127
f 104 127 125
f 128 125 114
f 114 125 129
f 115 114 129
f 118 129 125

