# https://github.com/mikedh/trimesh

o geometry_0
v 0.03476910 0.00056881 0.03549748
v 0.03425868 -0.00075676 0.03276985
v 0.03433145 0.00265749 0.03413392
v 0.03458146 -0.00176936 0.03576525
v 0.03359258 0.00273310 0.03165141
v 0.03407688 0.00310635 0.03621118
v 0.03323810 0.00214975 0.03862624
v 0.03408803 -0.00130340 0.03784971
v 0.03300406 0.00113172 0.03001223
v 0.03323810 -0.00205387 0.03862624
v 0.03258062 -0.00303733 0.02993692
v 0.03219559 0.00435149 0.03005754
v 0.03264173 0.00383534 0.03802067
v 0.03387707 -0.00332722 0.03645938
v 0.03295843 -0.00473744 0.03306877
v 0.03096874 0.00225480 0.02726568
v 0.03060640 0.00145866 0.03948310
v 0.03037896 -0.00247169 0.03925240
v 0.03118528 -0.00015818 0.02730584
v 0.02988807 0.00441948 0.02674044
v 0.03271932 0.00527083 0.03454124
v 0.03070757 0.00311988 0.03906394
v 0.03150984 0.00583767 0.03091453
v 0.03121774 0.00591725 0.03619161
v 0.02893519 0.00539319 0.03751604
v 0.03234151 -0.00446686 0.03751912
v 0.02939134 -0.00486428 0.02653060
v 0.00748858 -0.00340998 0.00061970
v 0.00748452 0.00351223 0.00061970
v 0.02989111 0.00671627 0.03487337
v 0.03047480 -0.00581839 0.02915087
v 0.03039012 -0.00325241 0.02685270
v 0.00631206 0.00317797 -0.00018360
v 0.00720256 0.00735215 0.00590708
v 0.02831904 0.00598689 0.02632695
v 0.02854724 0.00351700 0.03884251
v 0.02960814 -0.00469049 0.03815662
v 0.03079581 -0.00644850 0.03236872
v 0.00720256 -0.00724752 0.00591944
v 0.00630800 -0.00307573 -0.00018360
v 0.02834439 -0.00595468 0.02640676
v 0.00079865 0.00508162 -0.00224336
v 0.02712223 0.00710942 0.02706485
v 0.02903712 0.00004953 0.03946456
v 0.03052399 -0.00621532 0.03552220
v 0.02732914 -0.00683567 0.02688154
v 0.00119826 -0.00497858 -0.00202296
v 0.00468927 0.00777315 0.00550543
v 0.02521648 0.00781165 0.02782464
v 0.02783930 -0.00415648 0.03833169
v 0.00510511 -0.00764663 0.00561460
v 0.02612879 -0.00751910 0.02813026
v 0.00062724 -0.00391455 -0.00229382
v -0.00048538 0.00510072 -0.00226807
v 0.00009679 0.00776678 0.00466917
v 0.02103324 0.00816311 0.02644126
v 0.02656491 0.00624484 0.03629872
v 0.02766384 0.00756146 0.03049846
v 0.02526896 0.00527073 0.03683374
v 0.02687755 0.00335554 0.03825239
v -0.00047929 -0.00500087 -0.00226601
v 0.00051872 -0.00767409 0.00467329
v 0.02583111 0.00779941 0.03099486
v 0.02467792 0.00716354 0.03376935
v 0.02649188 -0.00040485 0.03829128
v 0.02636358 -0.00600084 0.03654692
v 0.02051142 -0.00807838 0.02590933
v 0.02743665 -0.00745762 0.03239755
v -0.00178158 -0.00745126 0.00404713
v -0.00172275 0.00508242 -0.00152965
v -0.00180186 0.00755509 0.00403065
v 0.02343852 -0.00796139 0.02874355
v 0.00765542 0.00774380 0.01854701
v 0.00986393 0.00755787 0.02283000
v 0.02434423 -0.00414415 0.03676422
v -0.00172377 -0.00498376 -0.00152553
v 0.00812907 -0.00761361 0.01954135
v 0.01977305 -0.00746081 0.03033780
v -0.00303112 0.00713648 0.00403889
v 0.01977711 0.00756146 0.03034604
v 0.01613396 -0.00205228 0.03279302
v 0.02467792 -0.00706129 0.03376111
v 0.00185346 -0.00748309 0.01133865
v -0.00430906 -0.00622885 0.00400593
v 0.01159321 -0.00728970 0.02503806
v 0.00700016 -0.00689606 0.02189372
v -0.00613000 -0.00169604 0.00337462
v -0.00595822 0.00343582 0.00360428
v -0.00503120 0.00560289 0.00426546
v 0.01089034 0.00714762 0.02532642
v 0.01987245 0.00693035 0.03217510
v 0.02286243 0.00652965 0.03459016
v 0.01395309 0.00209663 0.03149486
v 0.02073455 -0.00577363 0.03402476
v -0.00600944 -0.00402228 0.00428760
v -0.00656727 0.00207872 0.00446526
v 0.00111509 0.00631995 0.01534692
v 0.00426481 0.00734101 0.01702253
v 0.01710281 0.00456323 0.03264936
v 0.01403638 -0.00388460 0.03102022
v 0.02072238 -0.00703105 0.03237284
v -0.00597647 0.00427782 0.00453735
v -0.00238708 0.00535531 0.01061728
v -0.00018440 -0.00624566 0.01272280
v 0.01134320 0.00562737 0.02805920
v 0.00898559 -0.00203159 0.02826569
v 0.00904239 0.00382260 0.02780430
v 0.00274193 -0.00665820 0.01673597
v -0.00357019 -0.00436977 0.00952195
v -0.00655763 -0.00192614 0.00467741
v 0.00811246 0.00174402 0.02755746
v -0.00322104 -0.00272666 0.01152428
v 0.00979547 -0.00642462 0.02570078
v -0.00450329 0.00173939 0.00925328
v 0.00475241 0.00632283 0.02081119
v -0.00136168 0.00298379 0.01509769
v -0.00079067 0.00443997 0.01494373
v 0.00662216 0.00499269 0.02478316
v 0.00944175 -0.00489034 0.02728370
v -0.00011620 -0.00392410 0.01655394
v 0.00683845 -0.00510214 0.02475484
v 0.00332766 -0.00557049 0.02001999
v 0.00303403 0.00439481 0.02110393
v 0.00565597 -0.00245876 0.02514362
v 0.00194677 0.00302836 0.02053338
v 0.00520894 0.00222550 0.02476990
v 0.00009680 -0.00167386 0.01792522
v 0.00355738 -0.00385008 0.02213896
v 0.00291156 -0.00003120 0.02215247
f 1 2 3
f 1 4 2
f 3 2 5
f 1 3 6
f 1 6 7
f 1 7 8
f 4 1 8
f 2 9 5
f 2 11 9
f 3 5 12
f 7 10 8
f 8 14 4
f 4 15 2
f 5 9 12
f 6 13 7
f 7 17 10
f 8 10 14
f 2 15 11
f 9 19 16
f 9 16 12
f 12 16 20
f 6 21 13
f 13 22 7
f 7 22 17
f 10 17 18
f 11 19 9
f 3 12 23
f 6 3 21
f 21 24 13
f 13 25 22
f 14 10 26
f 14 15 4
f 19 28 29
f 19 29 16
f 16 29 20
f 12 20 23
f 13 24 25
f 10 18 26
f 15 31 11
f 11 31 27
f 27 32 11
f 11 32 19
f 28 19 32
f 29 34 35
f 29 35 20
f 20 35 23
f 3 23 21
f 21 30 24
f 22 36 17
f 26 18 37
f 27 28 32
f 28 27 41
f 28 41 39
f 33 42 29
f 29 42 34
f 34 43 35
f 23 35 43
f 21 23 30
f 22 25 36
f 17 44 18
f 14 26 45
f 38 14 45
f 38 15 14
f 39 41 46
f 28 47 40
f 28 39 47
f 41 31 46
f 28 40 29
f 29 40 33
f 42 48 34
f 34 49 43
f 24 30 25
f 17 36 44
f 18 50 37
f 26 37 45
f 15 38 31
f 39 51 47
f 39 46 52
f 27 31 41
f 40 47 53
f 40 53 33
f 42 55 48
f 23 43 58
f 36 25 59
f 30 57 25
f 18 44 50
f 38 46 31
f 39 52 51
f 47 61 53
f 47 51 62
f 47 62 61
f 53 42 33
f 42 53 54
f 42 54 55
f 48 56 34
f 34 56 49
f 30 58 63
f 30 64 57
f 30 23 58
f 36 60 44
f 44 60 65
f 45 37 66
f 38 52 46
f 51 52 67
f 62 69 61
f 54 71 55
f 48 55 56
f 49 56 63
f 49 63 58
f 43 49 58
f 30 63 64
f 25 57 59
f 36 59 60
f 44 65 50
f 50 66 37
f 38 45 68
f 67 52 72
f 54 53 61
f 54 70 71
f 56 55 73
f 56 73 74
f 65 75 50
f 38 68 52
f 61 69 76
f 62 51 67
f 67 77 62
f 67 78 77
f 67 72 78
f 54 61 70
f 70 79 71
f 56 74 80
f 65 81 75
f 68 45 82
f 45 66 82
f 68 72 52
f 80 63 56
f 60 81 65
f 69 84 76
f 61 76 70
f 77 85 86
f 77 83 62
f 78 85 77
f 70 87 88
f 70 88 89
f 70 89 79
f 55 71 73
f 74 90 80
f 80 91 64
f 63 80 64
f 57 64 92
f 57 92 59
f 50 75 94
f 68 82 72
f 76 84 95
f 76 95 87
f 76 87 70
f 69 62 83
f 87 96 88
f 73 71 98
f 74 73 98
f 92 99 59
f 59 99 60
f 81 60 93
f 81 100 75
f 94 66 50
f 72 82 78
f 77 86 83
f 78 101 85
f 88 102 89
f 89 97 79
f 71 79 98
f 74 98 90
f 90 91 80
f 64 91 92
f 75 100 94
f 82 101 78
f 84 69 104
f 83 104 69
f 96 102 88
f 102 103 89
f 60 99 93
f 93 99 107
f 87 95 110
f 87 110 96
f 84 109 95
f 86 108 83
f 103 97 89
f 92 105 99
f 81 93 106
f 93 111 106
f 106 100 81
f 66 94 101
f 66 101 82
f 83 108 104
f 104 109 84
f 85 113 86
f 101 113 85
f 96 110 114
f 96 114 102
f 97 98 79
f 90 98 115
f 91 105 92
f 105 107 99
f 93 107 111
f 109 112 95
f 102 114 116
f 90 105 91
f 90 118 105
f 100 106 119
f 94 100 119
f 95 112 110
f 109 104 120
f 113 121 86
f 101 94 113
f 102 116 117
f 103 102 117
f 90 115 118
f 109 120 112
f 86 122 108
f 103 117 97
f 97 115 98
f 94 119 113
f 112 114 110
f 86 121 122
f 117 123 97
f 97 123 115
f 115 123 118
f 106 111 124
f 113 119 121
f 104 108 122
f 107 126 111
f 112 120 127
f 121 128 122
f 114 127 116
f 107 105 118
f 107 118 126
f 124 121 106
f 106 121 119
f 122 120 104
f 120 122 128
f 112 127 114
f 125 123 117
f 125 117 116
f 111 126 124
f 126 118 123
f 120 128 129
f 116 129 125
f 124 129 128
f 128 121 124
f 120 129 127
f 127 129 116
f 125 126 123
f 125 129 126
f 126 129 124

o geometry_1
v 0.00103558 -0.00210087 0.00525617
v 0.00148248 -0.00210087 0.00525617
v 0.00108173 -0.00210087 0.00530612
v 0.00133548 0.00006473 0.00525617
v 0.00148248 -0.00210087 0.00557585
v 0.00148248 0.00006473 0.00525617
v 0.00110076 -0.00210087 0.00532661
v 0.00136515 0.00006473 0.00528543
v 0.00148248 -0.00193784 0.00557585
v 0.00136834 -0.00210087 0.00557585
v 0.00148248 0.00006473 0.00540102
v 0.00132087 -0.00210087 0.00553245
v 0.00146192 0.00006473 0.00538081
v 0.00147737 -0.00194484 0.00557585
v 0.00144775 -0.00198597 0.00557585
f 130 131 134
f 130 134 139
f 130 139 141
f 130 141 136
f 130 136 132
f 130 132 133
f 130 133 135
f 130 135 131
f 131 135 140
f 131 140 138
f 131 138 134
f 132 136 133
f 133 137 142
f 133 142 140
f 133 140 135
f 133 136 137
f 134 138 143
f 134 143 144
f 134 144 139
f 136 141 140
f 136 140 142
f 136 142 137
f 138 140 143
f 139 144 140
f 139 140 141
f 140 144 143

o geometry_2
v 0.00502217 -0.00172487 0.01205514
v 0.00509847 -0.00172487 0.01211818
v 0.00502217 -0.00172487 0.01213284
v 0.00502217 0.00180858 0.01206604
v 0.00509927 0.00180858 0.01212878
v 0.00510423 0.00180858 0.01213284
v 0.00511343 -0.00172487 0.01213284
v 0.00502217 0.00180858 0.01213284
f 145 146 151
f 145 151 147
f 145 147 152
f 145 152 148
f 145 148 149
f 145 149 150
f 145 150 146
f 146 150 151
f 147 151 150
f 147 150 152
f 148 152 150
f 148 150 149

o geometry_3
v 0.01770330 0.00275909 0.01941191
v 0.01776748 0.00297134 0.01944107
v 0.01786901 0.00297134 0.01944107
v 0.01801197 0.00272021 0.01942132
v 0.01770972 0.00254080 0.01941473
v 0.01425825 0.00251493 0.01974174
v 0.01425825 0.00297799 0.01974174
v 0.02018263 0.00315968 0.01974174
v 0.02021939 0.00315968 0.01974174
v 0.01801781 0.00254307 0.01942571
v 0.02021939 0.00307950 0.01974174
v 0.01600236 0.00197910 0.01974174
v 0.01598778 0.00197910 0.01974174
v 0.01593293 0.00198984 0.01974174
v 0.01425825 0.00161421 0.02117990
v 0.01425825 0.00297391 0.02004022
v 0.01653453 0.00297119 0.02240077
v 0.02021939 0.00315968 0.01976118
v 0.01429210 0.00297452 0.02005997
v 0.01637815 0.00297452 0.02214148
v 0.01822671 0.00255063 0.01945894
v 0.01620076 0.00199664 0.01974174
v 0.01991655 0.00254095 0.02115074
v 0.01991305 0.00254201 0.02091841
v 0.01989671 0.00254881 0.02070710
v 0.01433995 0.00161421 0.02126016
v 0.01425825 0.00161421 0.02183611
v 0.01425825 0.00294108 0.02022708
v 0.01444731 0.00297119 0.02032083
v 0.01829673 0.00297119 0.02261491
v 0.01834224 0.00297179 0.02261491
v 0.01676793 0.00297330 0.02240924
v 0.01486452 0.00297119 0.02073688
v 0.01426759 0.00276847 0.02091841
v 0.01510084 0.00276514 0.02175114
v 0.01551747 0.00276272 0.02216814
v 0.01593468 0.00276000 0.02258481
v 0.01637815 0.00288360 0.02255754
v 0.01637464 0.00286075 0.02261491
v 0.01839826 0.00297179 0.02261491
v 0.01865325 0.00297119 0.02238761
v 0.01948650 0.00297119 0.02155299
v 0.01990255 0.00297104 0.02113600
v 0.01991772 0.00275909 0.02115168
v 0.01571528 0.00161421 0.02261491
v 0.01559974 0.00161421 0.02250047
v 0.01554723 0.00161421 0.02244874
v 0.01476007 0.00161421 0.02167339
v 0.01449808 0.00161421 0.02141567
v 0.01846361 0.00275879 0.02261491
v 0.01866901 0.00254065 0.02240422
v 0.01428801 0.00161421 0.02186809
v 0.01444031 0.00183099 0.02199475
v 0.01425825 0.00196957 0.02177058
v 0.01425825 0.00287981 0.02047822
v 0.01425825 0.00276514 0.02091747
v 0.01429910 0.00261946 0.02130405
v 0.01555365 0.00261265 0.02255001
v 0.01593759 0.00274805 0.02261491
v 0.01513527 0.00261523 0.02213459
v 0.01505241 0.00161421 0.02261491
v 0.01840876 0.00253641 0.02261491
v 0.01431777 0.00161421 0.02189787
v 0.01425825 0.00197637 0.02176839
v 0.01485869 0.00182373 0.02240955
v 0.01425825 0.00261084 0.02127928
v 0.01559507 0.00259843 0.02261491
v 0.01487794 0.00256077 0.02197375
v 0.01445898 0.00256228 0.02155926
v 0.01510901 0.00194597 0.02261491
v 0.01484760 0.00161421 0.02242053
v 0.01448641 0.00210874 0.02194867
v 0.01425825 0.00226169 0.02160974
v 0.01425825 0.00241660 0.02148465
v 0.01529748 0.00255910 0.02238792
v 0.01534592 0.00234262 0.02261491
v 0.01425825 0.00234262 0.02154704
v 0.01511893 0.00197516 0.02261491
v 0.01490595 0.00210178 0.02236284
f 153 154 155
f 153 155 156
f 153 156 157
f 153 157 158
f 153 158 159
f 153 159 154
f 154 160 161
f 154 161 155
f 154 159 160
f 155 161 156
f 156 162 157
f 156 161 163
f 156 163 162
f 157 162 164
f 157 164 165
f 157 165 166
f 157 166 158
f 158 167 179
f 158 179 206
f 158 206 216
f 158 216 225
f 158 225 229
f 158 229 226
f 158 226 218
f 158 218 208
f 158 208 207
f 158 207 180
f 158 180 168
f 158 168 159
f 158 166 167
f 159 168 160
f 160 169 170
f 160 170 161
f 160 168 171
f 160 171 172
f 160 172 169
f 161 170 163
f 162 163 173
f 162 173 174
f 162 174 164
f 163 170 175
f 163 175 176
f 163 176 177
f 163 177 173
f 164 174 167
f 164 167 165
f 165 167 166
f 167 174 178
f 167 178 201
f 167 201 200
f 167 200 199
f 167 199 198
f 167 198 197
f 167 197 213
f 167 213 223
f 167 223 215
f 167 215 204
f 167 204 179
f 168 180 181
f 168 181 171
f 169 182 183
f 169 183 184
f 169 184 170
f 169 172 185
f 169 185 186
f 169 186 187
f 169 187 188
f 169 188 189
f 169 189 190
f 169 190 191
f 169 191 182
f 170 183 192
f 170 192 193
f 170 193 194
f 170 194 195
f 170 195 196
f 170 196 175
f 170 184 183
f 171 181 172
f 172 181 185
f 173 177 174
f 174 197 198
f 174 198 199
f 174 199 200
f 174 200 201
f 174 201 178
f 174 177 197
f 175 196 202
f 175 202 203
f 175 203 197
f 175 197 176
f 176 197 177
f 179 204 205
f 179 205 206
f 180 207 181
f 181 207 186
f 181 186 185
f 182 191 211
f 182 211 219
f 182 219 228
f 182 228 230
f 182 230 222
f 182 222 213
f 182 213 197
f 182 197 214
f 182 214 202
f 182 202 192
f 182 192 183
f 186 207 208
f 186 208 187
f 187 208 209
f 187 209 188
f 188 209 189
f 189 210 211
f 189 211 191
f 189 191 190
f 189 209 212
f 189 212 210
f 192 202 193
f 193 202 194
f 194 202 195
f 195 202 196
f 197 203 214
f 202 214 203
f 204 215 205
f 205 216 206
f 205 215 217
f 205 217 216
f 208 218 209
f 209 218 212
f 210 219 211
f 210 212 219
f 212 220 219
f 212 218 221
f 212 221 220
f 213 222 217
f 213 217 223
f 215 223 217
f 216 217 224
f 216 224 225
f 217 222 224
f 218 226 221
f 219 220 227
f 219 227 228
f 220 221 226
f 220 226 229
f 220 229 227
f 222 230 224
f 224 230 231
f 224 231 228
f 224 228 225
f 225 228 229
f 227 229 228
f 228 231 230

