# https://github.com/mikedh/trimesh

o geometry_0
v 0.03443202 -0.00004943 0.03639985
v 0.03425768 0.00148627 0.03491856
v 0.03395258 -0.00128445 0.03319472
v 0.03364597 0.00159142 0.03818672
v 0.03356383 -0.00259474 0.03756464
v 0.03394426 -0.00285222 0.03535439
v 0.03357706 0.00126967 0.03223306
v 0.03325899 -0.00046681 0.03901271
v 0.03269867 -0.00274966 0.03874395
v 0.03290980 -0.00306589 0.03140447
v 0.03334565 0.00398120 0.03497875
v 0.03279945 0.00214739 0.03894838
v 0.03255041 -0.00484727 0.03277317
v 0.03233185 0.00290409 0.03008663
v 0.03212022 0.00436572 0.03787334
v 0.03074211 -0.00096614 0.03982002
v 0.03238010 -0.00515692 0.03545789
v 0.03076781 0.00015766 0.02742602
v 0.03049798 0.00252574 0.03946981
v 0.03093711 -0.00583581 0.03085269
v 0.03142890 -0.00395640 0.02913611
v 0.03171082 0.00473770 0.03057226
v 0.03254738 0.00476573 0.03275203
v 0.03153925 -0.00508947 0.03732208
v 0.03068316 -0.00235140 0.02752564
v 0.02980641 0.00456008 0.02736999
v 0.02878454 0.00204743 0.03957928
v 0.02846609 -0.00303641 0.03935930
v 0.02884904 -0.00468682 0.03852500
v 0.03009866 -0.00664310 0.03345700
v 0.02950811 -0.00478997 0.02713651
v 0.03193076 0.00552109 0.03499483
v 0.03068013 0.00215655 0.02753290
v 0.02769616 0.00457282 0.03850218
v 0.02710763 -0.00698799 0.02733678
v 0.00758936 -0.00344902 0.00070795
v 0.03088874 0.00615532 0.03237859
v 0.00758936 0.00335174 0.00070795
v 0.02686577 -0.00508509 0.03808088
v 0.02593258 -0.00765628 0.02849898
v 0.02800857 -0.00611081 0.02669342
v 0.00762161 -0.00720385 0.00615367
v 0.00631959 0.00332466 -0.00011389
v 0.00762161 0.00711136 0.00614952
v 0.02783322 0.00603485 0.02651391
v 0.02905260 -0.00689719 0.03458495
v 0.00633168 -0.00760689 0.00575520
v 0.00087366 -0.00509146 -0.00222245
v 0.00631959 -0.00341875 -0.00011389
v 0.02711166 0.00689470 0.02733056
v 0.00075676 0.00500295 -0.00223283
v 0.00631959 0.00750962 0.00576350
v 0.02728903 0.00582735 0.03723621
v 0.02855074 0.00708587 0.03388037
v 0.02698519 0.00068596 0.03900856
v 0.02609886 -0.00625135 0.03650089
v 0.02679724 -0.00762362 0.03230310
v 0.02078697 0.00808949 0.02653362
v 0.02564840 0.00751679 0.02773733
v 0.02202349 0.00563380 0.03525218
v 0.02376968 0.00405617 0.03690519
v 0.02634577 -0.00277356 0.03855406
v 0.02046852 -0.00675859 0.03324012
v 0.02077891 -0.00818517 0.02653777
v -0.00019456 -0.00775664 0.00429415
v -0.00019053 -0.00445105 -0.00242999
v 0.00080110 0.00762293 0.00446018
v 0.02217415 0.00664180 0.03418441
v -0.00086775 -0.00511695 -0.00205435
v -0.00137566 -0.00762442 0.00404096
v -0.00097457 0.00501230 -0.00204086
v 0.01461672 -0.00311796 0.03206184
v 0.01820534 -0.00513128 0.03337242
v 0.02391102 -0.00718155 0.03388037
v 0.00745722 -0.00762168 0.02014154
v -0.00137162 0.00753033 0.00404511
v 0.00421539 0.00766415 0.01332401
v 0.00714595 0.00750643 0.02002947
v 0.02527956 0.00773265 0.03101223
v 0.01526143 0.00310362 0.03245356
v 0.01593675 0.00030915 0.03307656
v 0.02006541 0.00751599 0.03056396
v 0.01088675 0.00709543 0.02551255
v 0.01008054 0.00583213 0.02716038
v 0.01632462 0.00503242 0.03223669
v 0.01004729 -0.00444468 0.02847512
v 0.02006138 -0.00761008 0.03056396
v -0.00180496 -0.00472028 -0.00151839
v -0.00377412 -0.00676895 0.00407002
v -0.00335288 0.00688116 0.00407624
v 0.01016116 -0.00238167 0.02931148
v 0.00687184 -0.00720783 0.02158598
v -0.00187954 0.00468513 -0.00139231
v 0.01079202 -0.00724627 0.02524379
v -0.00598716 -0.00235299 0.00309875
v -0.00603755 0.00204663 0.00316309
v 0.00788716 0.00661153 0.02385979
v 0.00954240 0.00422454 0.02815330
v 0.01171311 0.00057823 0.03055981
v 0.00985279 -0.00593976 0.02697982
v -0.00586220 -0.00466930 0.00407832
v -0.00513661 -0.00551083 0.00441867
v 0.00168592 -0.00724408 0.01348589
v -0.00601739 0.00405269 0.00400983
v -0.00184993 0.00591562 0.01052125
v 0.00126870 0.00624633 0.01584141
v 0.00467877 0.00683416 0.01941666
v 0.00671060 -0.00468682 0.02551255
v -0.00654300 -0.00232287 0.00450882
v -0.00667747 0.00131382 0.00430246
v -0.00533564 0.00517320 0.00449754
v 0.00880271 0.00175231 0.02844917
v 0.00630346 -0.00341556 0.02591517
v -0.00017327 -0.00658505 0.01233744
v 0.00590187 -0.00008010 0.02590220
v -0.00451986 0.00294392 0.00896266
v 0.00631959 0.00413393 0.02548349
v -0.00376203 -0.00340600 0.01038324
v 0.00498330 0.00537413 0.02281459
v 0.00333612 -0.00407409 0.02205112
v 0.00461043 -0.00593737 0.02173541
v 0.00038036 -0.00509524 0.01644222
v -0.00042232 0.00398897 0.01629799
v -0.00451432 0.00000533 0.00940990
v 0.00333461 -0.00187986 0.02301798
v -0.00081937 -0.00212519 0.01667155
v -0.00082945 0.00173320 0.01669023
v 0.00209910 0.00417854 0.02026606
v 0.00302195 0.00182330 0.02259227
f 1 3 2
f 1 4 5
f 1 5 6
f 1 6 3
f 3 7 2
f 1 2 4
f 4 8 5
f 3 6 10
f 3 10 7
f 8 9 5
f 10 6 13
f 2 7 11
f 2 11 4
f 4 11 15
f 12 8 4
f 8 16 9
f 6 5 17
f 6 17 13
f 10 18 7
f 7 18 14
f 12 16 8
f 5 9 17
f 13 20 21
f 13 21 10
f 7 22 23
f 7 23 11
f 4 15 12
f 12 19 16
f 13 17 20
f 10 21 25
f 10 25 18
f 7 14 22
f 12 15 19
f 16 19 27
f 16 28 9
f 9 28 29
f 20 17 30
f 24 9 29
f 21 20 31
f 21 31 25
f 11 32 15
f 14 33 26
f 26 22 14
f 20 30 35
f 9 24 17
f 18 33 14
f 23 32 11
f 23 22 37
f 23 37 32
f 33 38 26
f 19 34 27
f 16 27 28
f 35 30 40
f 17 24 30
f 20 35 31
f 25 31 36
f 36 31 41
f 36 41 42
f 36 18 25
f 18 36 38
f 18 38 33
f 38 44 45
f 38 45 26
f 19 15 34
f 29 28 39
f 35 41 31
f 30 24 46
f 42 41 35
f 42 35 47
f 36 42 48
f 36 48 49
f 36 49 43
f 22 45 37
f 38 43 51
f 38 51 44
f 44 51 52
f 44 52 50
f 44 50 45
f 15 53 34
f 32 54 15
f 27 55 28
f 39 56 29
f 40 30 57
f 29 56 24
f 47 48 42
f 47 35 40
f 38 36 43
f 22 26 45
f 37 45 50
f 52 58 59
f 52 59 50
f 15 54 53
f 34 60 61
f 34 61 27
f 28 55 62
f 28 62 39
f 39 63 56
f 56 46 24
f 40 64 47
f 49 48 51
f 49 51 43
f 48 47 65
f 50 54 37
f 37 54 32
f 51 67 52
f 34 53 60
f 46 57 30
f 48 65 69
f 48 69 66
f 65 70 69
f 51 48 66
f 51 71 67
f 53 68 60
f 27 61 55
f 62 72 73
f 62 73 39
f 39 73 63
f 56 74 46
f 47 64 65
f 66 71 51
f 50 59 54
f 71 76 67
f 52 67 58
f 58 77 78
f 58 79 59
f 61 80 55
f 46 74 57
f 64 75 65
f 58 67 77
f 59 79 54
f 79 82 54
f 54 68 53
f 68 84 85
f 68 85 60
f 55 81 62
f 62 81 72
f 63 74 56
f 74 87 57
f 40 57 64
f 64 87 75
f 70 89 69
f 76 71 90
f 58 78 82
f 68 82 83
f 68 83 84
f 60 85 80
f 60 80 61
f 72 81 91
f 86 63 73
f 57 87 64
f 75 70 65
f 88 66 69
f 66 88 71
f 71 88 93
f 76 77 67
f 58 82 79
f 82 68 54
f 55 80 81
f 73 72 86
f 63 87 74
f 75 87 94
f 69 89 88
f 93 95 96
f 93 88 95
f 71 93 90
f 78 97 83
f 78 83 82
f 77 76 78
f 81 99 91
f 86 100 63
f 92 75 94
f 88 89 101
f 88 101 95
f 93 96 104
f 93 104 90
f 76 107 78
f 78 107 97
f 85 84 98
f 85 98 80
f 81 80 99
f 94 87 63
f 72 91 86
f 89 102 101
f 101 109 95
f 103 89 70
f 96 95 110
f 104 111 90
f 90 107 76
f 83 97 84
f 98 112 80
f 80 112 99
f 99 112 91
f 86 108 100
f 91 113 86
f 86 113 108
f 75 92 70
f 102 89 114
f 70 92 103
f 96 110 104
f 90 111 105
f 90 105 106
f 90 106 107
f 91 112 115
f 63 100 94
f 94 100 92
f 103 114 89
f 103 92 114
f 95 109 110
f 104 110 116
f 97 107 119
f 117 98 84
f 97 119 84
f 98 117 112
f 115 113 91
f 108 113 120
f 92 121 114
f 109 101 118
f 104 116 111
f 105 111 123
f 107 106 119
f 119 117 84
f 100 108 92
f 92 108 121
f 101 102 122
f 114 122 102
f 110 124 116
f 105 123 106
f 117 115 112
f 113 125 120
f 120 121 108
f 101 122 118
f 109 118 110
f 118 124 110
f 116 127 123
f 113 115 125
f 121 122 114
f 122 126 118
f 116 123 111
f 123 128 106
f 120 122 121
f 116 124 127
f 106 128 119
f 117 129 115
f 115 129 125
f 118 126 124
f 124 126 127
f 119 128 117
f 125 129 127
f 125 126 120
f 120 126 122
f 117 128 129
f 129 128 123
f 127 126 125
f 123 127 129

