# https://github.com/mikedh/trimesh

o geometry_0
v 0.01062866 0.00093281 0.00948127
v 0.01062057 -0.00119671 0.00939933
v 0.01060097 -0.00054124 0.00906832
v 0.01060481 -0.00033765 0.02086948
v 0.00796015 0.00503414 -0.00077111
v 0.00796185 -0.00513263 -0.00076462
v 0.00766880 0.00528322 -0.00138608
v 0.00783236 0.00548604 -0.00077111
v 0.01010646 0.00383617 0.00857830
v 0.01048554 0.00254990 0.00921436
v 0.01048043 -0.00030025 0.02136275
v 0.00783236 -0.00558915 -0.00076462
v 0.01048682 -0.00270661 0.00919164
v 0.00992714 -0.00439696 0.00800714
v 0.00982236 0.00454215 0.00791628
v 0.01053879 0.00198735 0.02087110
v 0.01044380 -0.00271394 0.02097657
v 0.00736468 -0.00563157 -0.00175116
v 0.00689870 0.00544825 -0.00209515
v 0.00721560 0.00595836 -0.00134470
v 0.00916982 0.00553230 0.00789356
v 0.00260693 0.00651012 0.02956822
v 0.00261204 -0.00661169 0.02956498
v 0.01011370 -0.00316313 0.02164995
v 0.00917152 -0.00563234 0.00789681
v 0.00716704 -0.00608654 -0.00142015
v 0.00832560 0.00640871 0.00806150
v 0.00970693 0.00465705 0.02131853
v 0.01035904 0.00306464 0.02087110
v 0.01011200 0.00306464 0.02164995
v 0.00572140 -0.00612279 -0.00191180
v 0.00666997 -0.00551088 -0.00222009
v 0.01002872 -0.00408889 0.02115992
v 0.00580148 0.00536111 -0.00239777
v 0.00554592 0.00782415 0.00822457
v 0.00642506 0.00757969 0.00792277
v 0.00747202 0.00703527 0.00793169
v 0.00899603 0.00568036 0.02209941
v 0.00941303 0.00486064 0.02210265
v 0.00720708 0.00685096 0.02399298
v 0.00651791 0.00747790 0.02412765
v 0.00160597 0.00638403 0.03033003
v 0.00144539 -0.00621956 0.03042455
v 0.00672364 -0.00744646 0.02408871
v 0.00883929 -0.00595313 0.02234442
v 0.00941345 -0.00496260 0.02209697
v 0.00792692 -0.00682530 0.00803554
v 0.00932528 -0.00537285 0.02160127
v 0.00688763 -0.00743720 0.00776700
v 0.00554762 -0.00792264 0.00823431
v 0.00572140 -0.00546114 -0.00240669
v 0.00584237 0.00586312 -0.00225579
v 0.00601104 0.00605977 -0.00175278
v 0.00721475 0.00717330 0.02340884
v 0.00160299 0.00751338 0.02916257
v 0.00084141 -0.00665565 0.03057910
v 0.00099858 -0.00760338 0.02956822
v 0.00797697 -0.00677055 0.02251053
v 0.00818760 0.00651166 0.02259267
v 0.00557318 0.00782260 0.02366521
v 0.00557318 -0.00792264 0.02365872
v 0.00691148 -0.00744838 0.02332447
v 0.00015011 -0.00546114 -0.00241643
v 0.00015692 0.00536111 -0.00242292
v -0.00008842 0.00586081 -0.00225254
v -0.00033291 0.00605977 -0.00175116
v -0.00135772 0.00749718 0.00757878
v 0.00031963 0.00754731 0.02963962
v -0.00113666 0.00649199 0.03060263
v 0.00056412 0.00605668 0.03068214
v 0.00015011 -0.00611662 0.03072027
v -0.00033887 -0.00616211 -0.00174791
v -0.00034228 -0.00595159 -0.00224118
v -0.00050244 -0.00768281 0.00792601
v -0.00066344 0.00758278 0.02922910
v -0.00148380 0.00605051 -0.00109888
v -0.00050244 -0.00769284 0.02939298
v -0.00139265 -0.00760416 0.00783677
v -0.00148891 -0.00615363 -0.00109239
v -0.00074778 0.00536111 -0.00228337
v -0.00140372 0.00750489 0.02957796
v -0.00248306 0.00722959 0.00758364
v -0.00167973 -0.00661632 0.03054827
v -0.00248732 -0.00733117 0.00758689
v -0.00180496 0.00583729 -0.00133578
v -0.00509918 0.00273613 0.03071702
v -0.00141224 -0.00760493 0.02957796
v -0.00190037 -0.00587216 -0.00126276
v -0.00138669 -0.00546114 -0.00196210
v -0.00267303 0.00717793 0.02958769
v -0.00155536 0.00536111 -0.00181606
v -0.00459913 0.00593176 0.00360909
v -0.00329490 0.00585310 0.03054827
v -0.00509918 -0.00283462 0.03071702
v -0.00329831 -0.00595159 0.03054827
v -0.00302911 -0.00712682 0.02949196
v -0.00453609 -0.00604413 0.00339572
v -0.00376066 0.00660555 0.00730780
v -0.00560009 0.00261121 0.03055801
v -0.00566653 -0.00184910 0.03060993
v -0.00382051 -0.00670808 0.02949277
v -0.00335453 -0.00696333 0.00743599
v -0.00467154 -0.00601791 0.00382409
v -0.00544590 -0.00500231 0.00330161
v -0.00593232 -0.00369676 0.00299007
v -0.00424219 0.00631347 0.02949034
v -0.00593232 0.00360290 0.00298683
v -0.00562905 0.00461156 0.00326591
v -0.00535730 0.00521459 0.02923397
v -0.00507299 0.00422849 0.03039555
v -0.00612229 -0.00365512 0.00349308
v -0.00612314 0.00355586 0.00349308
v -0.00584969 0.00436865 0.00382084
v -0.00499184 0.00559091 0.02962664
v -0.00466983 -0.00601328 0.02962339
v -0.00539990 -0.00526604 0.02939623
v -0.00548594 -0.00506092 0.00382409
v -0.00626796 -0.00353482 0.00638779
v -0.00660360 -0.00217915 0.00776051
v -0.00658997 0.00218168 0.00776051
v -0.00633995 0.00327054 0.00728671
v -0.00657464 -0.00268348 0.02957147
v -0.00596810 -0.00440467 0.02906522
v -0.00626455 -0.00370602 0.02958769
v -0.00657464 0.00258499 0.02957147
v -0.00596810 0.00430618 0.02939947
v -0.00668198 -0.00184910 0.02940272
v -0.00669646 -0.00062259 0.01325544
v -0.00671073 0.00112882 0.02915203
f 1 2 3
f 1 4 2
f 3 6 5
f 5 6 7
f 5 7 8
f 5 8 9
f 5 9 10
f 5 10 3
f 6 3 2
f 6 2 13
f 6 13 14
f 6 14 12
f 9 8 15
f 10 1 3
f 1 16 4
f 4 16 11
f 4 11 17
f 12 18 6
f 6 18 7
f 7 19 20
f 8 21 15
f 10 16 1
f 11 22 23
f 11 23 24
f 4 17 2
f 2 17 13
f 12 14 25
f 7 20 8
f 8 20 21
f 9 29 10
f 10 29 16
f 16 30 11
f 11 30 22
f 11 24 17
f 12 25 26
f 12 26 18
f 26 31 18
f 13 17 33
f 13 33 14
f 18 19 7
f 20 35 36
f 20 36 37
f 20 37 27
f 20 27 21
f 21 27 38
f 21 38 28
f 21 28 15
f 15 28 9
f 16 29 30
f 22 39 40
f 22 40 41
f 22 30 39
f 22 42 23
f 23 42 43
f 23 44 45
f 23 45 46
f 23 46 24
f 17 24 33
f 26 25 47
f 14 33 48
f 14 48 25
f 25 48 45
f 26 47 49
f 26 49 50
f 31 32 18
f 32 19 18
f 19 32 51
f 19 51 34
f 20 52 53
f 20 53 35
f 20 19 52
f 28 39 29
f 28 29 9
f 29 39 30
f 39 38 40
f 40 38 54
f 40 54 41
f 41 55 22
f 43 56 23
f 44 23 57
f 24 46 33
f 33 46 48
f 25 45 58
f 25 58 47
f 50 31 26
f 34 52 19
f 37 36 54
f 38 27 59
f 28 38 39
f 38 59 54
f 55 41 60
f 55 42 22
f 44 57 61
f 44 58 45
f 47 62 49
f 48 46 45
f 49 62 50
f 50 72 31
f 31 51 32
f 51 31 63
f 51 63 64
f 51 64 34
f 52 34 64
f 53 52 66
f 53 66 35
f 35 66 67
f 27 37 59
f 41 54 60
f 55 60 68
f 55 68 42
f 42 69 70
f 56 57 23
f 56 43 71
f 61 62 44
f 44 62 58
f 47 58 62
f 31 72 73
f 50 74 72
f 63 31 73
f 64 65 52
f 52 65 66
f 35 67 75
f 35 75 60
f 66 76 67
f 35 60 36
f 37 54 59
f 54 36 60
f 68 60 75
f 42 70 43
f 43 70 71
f 61 57 77
f 61 50 62
f 74 50 77
f 74 77 78
f 72 74 78
f 72 78 79
f 64 63 80
f 64 80 65
f 76 66 65
f 67 76 82
f 75 81 68
f 42 68 69
f 56 71 83
f 50 61 77
f 79 73 72
f 78 84 79
f 67 81 75
f 76 65 85
f 56 83 57
f 77 57 87
f 78 77 87
f 79 88 73
f 73 89 63
f 63 89 80
f 67 82 90
f 67 90 81
f 81 69 68
f 65 80 91
f 76 92 82
f 70 69 93
f 70 94 71
f 70 86 94
f 86 70 93
f 71 94 95
f 71 95 83
f 57 83 87
f 78 87 84
f 84 97 79
f 79 97 88
f 80 89 91
f 88 89 73
f 65 91 85
f 76 85 92
f 86 99 100
f 86 100 94
f 97 84 102
f 97 102 103
f 87 96 84
f 88 97 104
f 88 104 105
f 88 105 89
f 81 90 69
f 85 91 107
f 85 107 108
f 85 108 92
f 92 109 106
f 92 98 82
f 93 110 86
f 87 83 96
f 83 95 96
f 102 84 96
f 97 103 104
f 89 105 107
f 89 107 91
f 90 98 106
f 90 82 98
f 106 93 90
f 108 107 112
f 108 113 92
f 92 106 98
f 69 90 93
f 93 114 110
f 86 110 99
f 101 95 115
f 96 101 102
f 96 95 101
f 102 101 103
f 104 103 117
f 104 117 105
f 111 105 118
f 111 118 119
f 105 111 112
f 105 112 107
f 112 120 121
f 112 121 113
f 112 113 108
f 92 113 109
f 100 99 122
f 101 115 103
f 103 115 116
f 103 116 117
f 117 116 123
f 105 117 118
f 111 119 112
f 118 117 123
f 112 119 120
f 106 109 114
f 106 114 93
f 121 120 125
f 94 124 115
f 94 115 95
f 100 122 94
f 122 99 125
f 123 116 124
f 123 124 118
f 124 122 118
f 118 122 119
f 119 122 127
f 119 128 120
f 120 129 125
f 113 121 126
f 126 109 113
f 109 126 114
f 94 122 124
f 110 114 126
f 110 126 125
f 110 125 99
f 125 129 122
f 124 116 115
f 127 128 119
f 128 127 129
f 128 129 120
f 121 125 126
f 122 129 127

