# https://github.com/mikedh/trimesh

o geometry_0
v 0.03443166 -0.00005320 0.03640411
v 0.03420997 -0.00151627 0.03408806
v 0.03411929 0.00197455 0.03429559
v 0.03339024 0.00052004 0.03152661
v 0.03365778 0.00119145 0.03827293
v 0.03361949 -0.00142229 0.03833622
v 0.03397721 -0.00274120 0.03530809
v 0.03339982 0.00387248 0.03407976
v 0.03318518 0.00369547 0.03696548
v 0.03290052 0.00174378 0.03896764
v 0.03294435 -0.00177671 0.03886400
v 0.03324212 -0.00359171 0.03723890
v 0.03233572 -0.00300244 0.03009101
v 0.03063882 0.00281162 0.02760063
v 0.03254935 -0.00431607 0.03173595
v 0.03070734 -0.00204073 0.02751140
v 0.03076982 0.00026299 0.02743876
v 0.03048062 0.00233076 0.03958037
v 0.03068102 -0.00086458 0.03983797
v 0.03055619 -0.00303828 0.03936143
v 0.03249771 -0.00500938 0.03570616
v 0.03223395 -0.00531392 0.03308984
v 0.03192938 0.00489751 0.03127446
v 0.03214578 0.00533899 0.03493401
v 0.02970573 0.00467490 0.02736301
v 0.03196894 -0.00471320 0.03771155
v 0.03031158 0.00604359 0.03029906
v 0.00758351 0.00335001 0.00070459
v 0.03175808 0.00478670 0.03753567
v 0.02828291 0.00274272 0.03924832
v 0.02775036 -0.00435201 0.03862158
v 0.03030062 -0.00580279 0.02952419
v 0.03022367 -0.00422896 0.02759233
v 0.00631386 0.00332294 -0.00011724
v 0.00762785 0.00710924 0.00615021
v 0.02782140 0.00604200 0.02652147
v 0.02769242 0.00456937 0.03850225
v 0.02903513 -0.00071773 0.03980243
v 0.03052370 -0.00643828 0.03271797
v 0.00758754 -0.00345322 0.00070874
v 0.03000399 0.00661126 0.03282575
v 0.00086845 0.00499388 -0.00222161
v 0.00632998 0.00750746 0.00576420
v 0.02730245 0.00688504 0.02755809
v 0.03046047 -0.00618026 0.03608451
v 0.00761173 -0.00720608 0.00615021
v 0.02782442 -0.00614083 0.02652251
v 0.03045240 0.00608182 0.03607829
v 0.00231949 0.00756958 0.00441109
v 0.02497576 0.00760781 0.02736820
v 0.02707170 -0.00697352 0.02726236
v 0.00558431 -0.00768554 0.00565421
v 0.00086845 -0.00509231 -0.00222161
v 0.00632192 -0.00342296 -0.00011724
v -0.00019564 -0.00005001 -0.00243329
v 0.02099046 0.00807493 0.02674353
v 0.02685807 0.00582537 0.03723424
v 0.02692458 0.00070104 0.03898165
v 0.02592901 -0.00765926 0.02849094
v 0.02863408 0.00695493 0.03426498
v -0.00083248 0.00498910 -0.00221745
v -0.00057653 0.00760065 0.00437374
v 0.02149467 0.00547700 0.03497726
v 0.02550075 -0.00419357 0.03779003
v 0.02701124 -0.00616851 0.03677092
v -0.00078210 -0.00769191 0.00417036
v 0.00526589 0.00766357 0.01520687
v 0.01571736 0.00750786 0.02749375
v 0.02309798 0.00334484 0.03671048
v 0.02088050 0.00651400 0.03362617
v 0.02480635 -0.00614422 0.03632862
v 0.02757956 -0.00740857 0.03310021
v 0.02078389 -0.00818730 0.02653807
v 0.02389958 -0.00802642 0.02969255
v -0.00163256 -0.00466621 -0.00175881
v 0.02389958 0.00792798 0.02969255
v 0.02125346 0.00719605 0.03254195
v 0.01540952 -0.00263279 0.03263897
v 0.01265205 -0.00764850 0.02507394
v 0.00573546 -0.00774039 0.01607513
v -0.00188045 0.00468326 -0.00139771
v -0.00335567 0.00687827 0.00407074
v 0.00624861 0.00720461 0.02017257
v 0.02020322 -0.00603918 0.03393319
v 0.02354715 -0.00693459 0.03442634
v 0.00219403 -0.00756408 0.01222516
v -0.00172124 -0.00511461 -0.00143091
v 0.00063064 0.00709172 0.01169129
v 0.01576044 0.00018812 0.03297128
v 0.01550374 -0.00427994 0.03222028
v -0.00335164 -0.00697909 0.00408631
v 0.01445073 0.00409111 0.03159354
v 0.01890208 -0.00702150 0.03170041
v 0.01011577 -0.00726183 0.02460492
v 0.00589064 -0.00718696 0.02046986
v -0.00598365 -0.00235254 0.00309950
v -0.00635321 0.00236332 0.00382871
v -0.00571360 0.00467052 0.00399811
v 0.00962025 0.00651977 0.02561171
v 0.01031629 -0.00613008 0.02705379
v -0.00586273 -0.00467179 0.00407904
v -0.00111488 0.00611587 0.01147727
v 0.00842189 0.00540007 0.02631394
v 0.01111839 -0.00162697 0.03011695
v 0.00055280 -0.00662905 0.01353131
v -0.00544688 0.00272777 0.00692144
v 0.00391550 0.00625102 0.01994027
v 0.00963612 0.00164263 0.02906010
v -0.00295059 -0.00511620 0.01002689
v -0.00663661 -0.00151388 0.00451278
v -0.00278527 0.00436063 0.01127811
v 0.00801076 -0.00464789 0.02673730
v -0.00376276 -0.00340066 0.01039214
v 0.00934617 0.00345714 0.02840430
v 0.00852568 -0.00294430 0.02799806
v 0.00592692 -0.00590309 0.02336285
v -0.00371288 -0.00176038 0.01103964
v 0.00119292 0.00510110 0.01765366
v 0.00460952 0.00441143 0.02326660
v 0.00639447 0.00212170 0.02624909
v 0.00589870 -0.00170423 0.02590562
v -0.00084659 -0.00470205 0.01484161
v -0.00062087 0.00291277 0.01670109
v 0.00486081 -0.00336402 0.02442125
v 0.00228523 -0.00471559 0.02008593
v -0.00081233 -0.00212635 0.01668034
v 0.00331909 0.00141624 0.02303495
v 0.00333723 -0.00187945 0.02301834
v 0.00126749 -0.00342615 0.01962313
f 1 2 3
f 2 4 3
f 1 5 6
f 2 1 7
f 1 6 7
f 3 4 8
f 3 9 1
f 3 8 9
f 1 9 5
f 5 9 10
f 5 11 6
f 6 12 7
f 2 13 4
f 4 14 8
f 10 11 5
f 6 11 12
f 4 13 16
f 4 17 14
f 10 19 11
f 11 19 20
f 7 12 21
f 7 15 2
f 7 21 15
f 15 21 22
f 2 15 13
f 8 24 9
f 14 23 8
f 10 18 19
f 12 11 26
f 4 16 17
f 8 23 24
f 23 14 25
f 10 9 29
f 10 29 18
f 20 19 31
f 11 20 26
f 22 32 15
f 13 33 16
f 27 24 23
f 25 14 28
f 28 35 36
f 28 36 25
f 18 37 30
f 18 30 19
f 26 21 12
f 15 32 13
f 32 22 39
f 33 40 16
f 17 16 40
f 17 40 28
f 23 25 27
f 27 41 24
f 24 29 9
f 28 14 17
f 28 34 42
f 28 42 35
f 35 42 43
f 35 43 44
f 35 44 36
f 36 44 25
f 30 38 19
f 19 38 31
f 21 39 22
f 13 32 33
f 40 33 47
f 40 47 46
f 27 44 41
f 24 48 29
f 34 28 40
f 42 49 43
f 43 50 44
f 44 27 25
f 29 37 18
f 31 26 20
f 26 45 21
f 39 51 32
f 33 32 47
f 46 47 51
f 46 51 52
f 40 46 53
f 40 53 54
f 47 32 51
f 41 44 50
f 24 41 48
f 40 54 34
f 50 43 56
f 48 57 29
f 38 30 58
f 45 39 21
f 52 53 46
f 52 51 59
f 34 54 53
f 34 53 42
f 55 42 53
f 42 55 61
f 42 61 49
f 37 29 57
f 30 37 63
f 38 64 31
f 31 65 26
f 45 26 65
f 53 52 66
f 48 41 60
f 48 60 57
f 61 62 49
f 43 49 62
f 56 67 68
f 57 70 37
f 37 70 63
f 38 58 64
f 31 64 71
f 45 72 39
f 39 59 51
f 52 59 73
f 59 74 73
f 41 50 60
f 55 53 75
f 43 62 56
f 50 56 76
f 57 60 77
f 69 58 30
f 30 63 69
f 71 65 31
f 45 65 72
f 39 72 59
f 73 79 80
f 73 66 52
f 75 61 55
f 62 61 82
f 56 62 67
f 67 83 68
f 64 58 78
f 71 64 84
f 65 71 85
f 65 85 72
f 73 80 66
f 59 72 74
f 60 76 77
f 50 76 60
f 53 87 75
f 53 66 87
f 61 75 81
f 82 88 62
f 56 68 76
f 57 77 70
f 64 90 84
f 71 84 85
f 73 74 79
f 66 91 87
f 66 80 86
f 61 81 82
f 62 88 67
f 67 88 83
f 76 68 77
f 63 92 69
f 78 58 89
f 78 90 64
f 85 74 72
f 79 94 95
f 79 95 80
f 91 66 86
f 81 75 96
f 81 97 98
f 81 98 82
f 83 99 68
f 68 99 77
f 69 89 58
f 84 90 100
f 85 84 93
f 79 93 94
f 95 86 80
f 87 91 101
f 87 101 75
f 75 101 96
f 96 97 81
f 82 102 88
f 92 89 69
f 70 103 63
f 70 77 99
f 78 89 104
f 84 100 93
f 74 85 93
f 79 74 93
f 86 105 91
f 88 102 83
f 92 108 89
f 63 103 92
f 99 103 70
f 91 109 101
f 97 110 106
f 97 106 98
f 98 102 82
f 78 104 90
f 90 112 100
f 100 94 93
f 95 105 86
f 96 101 97
f 98 111 102
f 102 107 83
f 107 99 83
f 92 114 108
f 89 108 104
f 104 115 90
f 90 115 112
f 101 113 117
f 101 117 110
f 101 110 97
f 106 111 98
f 107 103 99
f 108 115 104
f 95 94 100
f 95 100 116
f 91 105 109
f 110 117 106
f 102 118 107
f 107 118 119
f 92 103 114
f 101 109 113
f 113 109 122
f 106 123 111
f 111 118 102
f 114 120 108
f 115 108 121
f 100 112 116
f 95 116 125
f 109 105 122
f 106 117 123
f 107 119 103
f 103 119 114
f 120 121 108
f 115 121 124
f 115 124 112
f 111 123 118
f 114 119 120
f 125 105 95
f 105 125 122
f 113 122 129
f 113 129 126
f 113 126 117
f 128 124 121
f 116 112 124
f 118 123 119
f 119 127 120
f 127 121 120
f 127 128 121
f 122 125 129
f 123 127 119
f 124 125 116
f 117 126 123
f 129 128 126
f 128 129 124
f 129 125 124
f 128 127 126
f 123 126 127

