# https://github.com/mikedh/trimesh

o geometry_0
v 0.01063165 0.00011251 0.00923478
v 0.01057245 0.00150609 0.02087079
v 0.01061249 -0.00054207 0.02087079
v 0.00796190 -0.00513338 -0.00076885
v 0.00796020 0.00503148 -0.00076885
v 0.01052517 -0.00244413 0.00929644
v 0.01052517 0.00234224 0.00929482
v 0.00783242 0.00548791 -0.00076885
v 0.01014311 0.00378092 0.00858085
v 0.01029133 0.00229212 0.02149146
v 0.01048258 -0.00059720 0.02136732
v 0.00996688 -0.00430426 0.00821170
v 0.00752915 0.00553109 -0.00159640
v 0.01050728 -0.00229031 0.02087079
v 0.00739882 -0.00597762 -0.00126051
v 0.00736474 -0.00563067 -0.00175542
v 0.00739712 0.00587727 -0.00126214
v 0.00917241 0.00553340 0.00799508
v 0.00982068 0.00454421 0.00791557
v 0.01041528 0.00279636 0.02087079
v 0.00260877 0.00651180 0.02956495
v 0.00260707 -0.00661215 0.02956170
v 0.01011372 -0.00316424 0.02165291
v 0.00916985 -0.00563144 0.00789609
v 0.00675907 0.00536147 -0.00219354
v 0.00836739 0.00636454 0.00789609
v 0.00943904 0.00511783 0.02151985
v 0.00854117 -0.00631300 0.00792692
v 0.00703337 -0.00614030 -0.00142440
v 0.00666962 -0.00551001 -0.00222599
v 0.01019933 -0.00363995 0.02113447
v 0.00980364 -0.00460909 0.02119208
v 0.00617980 0.00584566 -0.00224222
v 0.00637573 0.00605074 -0.00175542
v 0.00554431 0.00782404 0.00822711
v 0.00628884 0.00763361 0.00809000
v 0.00740478 0.00709622 0.00809081
v 0.00818509 0.00651180 0.02267843
v 0.00949015 0.00486649 0.02200989
v 0.00762499 0.00661859 0.02358873
v 0.00672116 0.00734679 0.02408607
v 0.00672329 -0.00744753 0.02408607
v 0.00753767 -0.00679102 0.02366499
v 0.00949186 -0.00496684 0.02200989
v 0.00181867 -0.00619774 0.03024930
v 0.00047911 -0.00668771 0.03060993
v 0.00868684 -0.00612874 0.02225978
v 0.00740478 -0.00719503 0.00809081
v 0.00554601 -0.00792285 0.00823360
v 0.00618661 -0.00594447 -0.00224222
v 0.00588335 -0.00546028 -0.00239799
v 0.00571809 0.00536147 -0.00240773
v 0.00157056 0.00751815 0.02916943
v 0.00108564 0.00634372 0.03058397
v 0.00181760 0.00609739 0.03025254
v 0.00161124 -0.00761831 0.02912926
v 0.00112823 -0.00627985 0.03056287
v -0.00033954 -0.00616189 -0.00175542
v 0.00556986 0.00782096 0.02366175
v 0.00556816 -0.00792131 0.02366175
v 0.00059794 -0.00759190 0.02964202
v 0.00659210 -0.00761599 0.02348975
v 0.00015199 -0.00546028 -0.00242071
v 0.00015369 0.00536147 -0.00242071
v -0.00135752 0.00749714 0.00758130
v -0.00033783 0.00606077 -0.00175218
v 0.00003060 0.00592122 -0.00216839
v 0.00695159 0.00732790 0.02324148
v -0.00050224 0.00759120 0.02938970
v 0.00066567 0.00751911 0.02959497
v -0.00176375 -0.00564445 0.03071601
v -0.00034039 -0.00595372 -0.00224546
v -0.00050224 -0.00768307 0.00792530
v -0.00053589 -0.00551348 -0.00232254
v -0.00029992 0.00657965 0.03060953
v -0.00091327 0.00585144 0.03072514
v -0.00033954 -0.00769656 0.02922744
v -0.00139074 -0.00760443 0.00783606
v -0.00148870 -0.00615264 -0.00109663
v -0.00062747 0.00536147 -0.00231199
v -0.00140692 0.00750331 0.02957468
v -0.00179112 0.00581636 -0.00139195
v -0.00165056 0.00603764 -0.00093436
v -0.00251733 0.00721572 0.00755371
v -0.00240403 -0.00735270 0.00758941
v -0.00155771 -0.00546028 -0.00181546
v -0.00462698 0.00587496 0.00330400
v -0.00140692 -0.00760366 0.02957468
v -0.00444127 0.00404769 0.03071703
v -0.00557553 -0.00031665 0.03063995
v -0.00189888 -0.00587199 -0.00126619
v -0.00155771 0.00536147 -0.00182033
v -0.00262722 0.00720108 0.02948868
v -0.00454350 -0.00458134 0.03063103
v -0.00460398 -0.00602928 0.00361230
v -0.00396593 0.00651951 0.02957793
v -0.00593204 0.00360359 0.00298920
v -0.00467128 0.00591813 0.00382974
v -0.00364989 0.00668605 0.00726975
v -0.00267450 -0.00727984 0.02958117
v -0.00203858 -0.00647607 0.03056774
v -0.00542859 0.00314832 0.03054503
v -0.00542859 -0.00324790 0.03054503
v -0.00393207 -0.00577176 0.03028703
v -0.00335259 -0.00696527 0.00743526
v -0.00552953 -0.00484464 0.00329670
v -0.00593204 -0.00369932 0.00299245
v -0.00302845 0.00600063 0.03053448
v -0.00585026 0.00437151 0.00382649
v -0.00473389 0.00590849 0.02906760
v -0.00396593 -0.00662140 0.02957468
v -0.00470791 0.00501375 0.03023307
v -0.00612371 -0.00365768 0.00349709
v -0.00612371 0.00355733 0.00349222
v -0.00663994 -0.00070707 0.02965257
v -0.00657605 -0.00268468 0.02956495
v -0.00566328 -0.00488126 0.02949355
v -0.00414142 -0.00646181 0.00710424
v -0.00493898 -0.00579663 0.02923149
v -0.00548651 -0.00506013 0.00382649
v -0.00634115 -0.00337203 0.00740281
v -0.00660501 -0.00218045 0.00775979
v -0.00660501 0.00208010 0.00775655
v -0.00631197 0.00339388 0.00743526
v -0.00578893 0.00460281 0.02939619
v -0.00626427 0.00360513 0.02958766
v -0.00662887 0.00216722 0.02948057
v -0.00673961 -0.00021401 0.02923068
v -0.00670553 -0.00054130 0.01334170
f 1 2 3
f 1 4 5
f 1 3 6
f 1 5 7
f 5 8 9
f 5 9 7
f 1 7 2
f 2 10 3
f 3 10 11
f 1 6 4
f 4 6 12
f 8 5 13
f 3 11 14
f 3 14 6
f 4 16 5
f 5 16 13
f 8 13 17
f 8 17 18
f 8 18 19
f 8 19 9
f 7 20 2
f 2 20 10
f 10 21 11
f 11 21 22
f 11 22 23
f 11 23 14
f 4 12 15
f 15 16 4
f 15 12 24
f 17 26 18
f 19 27 9
f 9 20 7
f 24 28 15
f 16 15 29
f 6 14 31
f 13 25 17
f 17 34 35
f 17 35 36
f 17 36 37
f 17 37 26
f 17 25 33
f 18 26 38
f 18 38 27
f 27 20 9
f 20 39 10
f 10 39 21
f 21 39 40
f 21 40 41
f 22 42 43
f 22 43 44
f 22 44 23
f 22 45 46
f 23 44 31
f 23 31 14
f 12 32 24
f 24 32 47
f 24 47 28
f 15 28 48
f 15 48 29
f 29 48 49
f 16 50 30
f 30 25 16
f 6 31 12
f 16 25 13
f 30 51 25
f 25 51 52
f 25 52 33
f 17 33 34
f 37 38 26
f 18 27 19
f 20 27 39
f 39 38 40
f 40 38 41
f 41 53 21
f 21 54 55
f 22 21 55
f 22 55 45
f 42 22 56
f 43 42 47
f 43 47 44
f 46 45 57
f 29 50 16
f 49 58 29
f 12 31 32
f 32 44 47
f 27 38 39
f 53 41 59
f 53 54 21
f 56 60 42
f 45 55 57
f 56 22 46
f 56 46 61
f 44 32 31
f 28 47 48
f 48 62 49
f 58 50 29
f 50 51 30
f 51 50 63
f 51 63 64
f 51 64 52
f 52 64 33
f 35 34 66
f 35 66 65
f 34 33 67
f 34 67 66
f 36 35 59
f 37 68 38
f 38 68 41
f 41 68 59
f 53 59 69
f 53 70 54
f 55 54 57
f 42 60 62
f 42 62 47
f 57 71 46
f 47 62 48
f 49 62 60
f 50 58 72
f 49 73 58
f 63 50 72
f 64 67 33
f 35 65 69
f 35 69 59
f 36 59 68
f 36 68 37
f 53 69 70
f 54 70 75
f 60 56 77
f 57 54 76
f 57 76 71
f 49 77 73
f 73 77 78
f 58 78 79
f 58 73 78
f 63 72 74
f 74 80 64
f 74 64 63
f 69 81 70
f 67 82 66
f 65 66 83
f 65 83 84
f 56 61 77
f 49 60 77
f 78 85 79
f 79 72 58
f 64 80 67
f 65 81 69
f 82 87 83
f 82 83 66
f 54 75 76
f 61 88 77
f 71 76 89
f 71 89 90
f 78 77 88
f 79 91 72
f 72 86 74
f 74 86 92
f 74 92 80
f 86 72 91
f 65 84 93
f 65 93 81
f 81 75 70
f 67 80 82
f 82 80 92
f 83 87 84
f 90 94 71
f 46 88 61
f 78 88 85
f 85 95 79
f 79 95 91
f 82 97 87
f 87 98 99
f 71 101 46
f 94 90 103
f 71 94 104
f 88 100 105
f 88 105 85
f 85 105 95
f 91 95 106
f 91 106 107
f 91 107 86
f 86 107 92
f 92 107 97
f 93 96 108
f 75 81 108
f 75 108 76
f 82 92 97
f 97 109 87
f 87 109 98
f 87 99 84
f 84 99 93
f 88 46 101
f 88 101 100
f 89 108 112
f 89 76 108
f 102 89 112
f 89 102 90
f 71 104 101
f 100 111 105
f 106 113 107
f 93 108 81
f 96 93 99
f 98 110 99
f 99 110 96
f 100 101 104
f 100 104 111
f 90 115 116
f 90 116 103
f 94 117 104
f 95 105 118
f 95 119 120
f 105 111 118
f 95 120 106
f 106 120 121
f 106 121 113
f 113 121 122
f 107 113 97
f 97 113 114
f 114 123 124
f 114 124 109
f 114 109 97
f 109 125 98
f 112 108 96
f 90 102 127
f 90 127 115
f 94 103 117
f 118 111 119
f 118 119 95
f 121 120 117
f 113 122 114
f 114 122 123
f 109 124 125
f 112 96 126
f 126 96 110
f 126 110 125
f 102 112 126
f 102 126 127
f 115 128 116
f 120 119 117
f 121 116 122
f 122 129 123
f 123 127 124
f 124 126 125
f 98 125 110
f 111 104 117
f 111 117 119
f 127 128 115
f 116 117 103
f 121 117 116
f 116 128 129
f 116 129 122
f 129 128 127
f 129 127 123
f 124 127 126

