# https://github.com/mikedh/trimesh

o geometry_0
v 0.01062623 -0.00017347 0.00923644
v 0.01061218 -0.00054167 0.02086757
v 0.00790650 -0.00505003 -0.00093024
v 0.00796357 0.00503429 -0.00076879
v 0.01056320 0.00208090 0.00940195
v 0.01057236 0.00146574 0.02086757
v 0.01053254 -0.00234378 0.00926727
v 0.00783410 0.00548771 -0.00076879
v 0.00982386 0.00454386 0.00791561
v 0.01029021 0.00229412 0.02149066
v 0.01048058 -0.00055710 0.02136410
v 0.00783580 -0.00558866 -0.00076555
v 0.00992948 -0.00439496 0.00800323
v 0.00720208 0.00553398 -0.00192087
v 0.01034834 0.00315373 0.00921007
v 0.01040477 -0.00294564 0.02086757
v 0.00720378 -0.00563492 -0.00192087
v 0.00917139 0.00553244 0.00788965
v 0.00740054 0.00587867 -0.00126370
v 0.00260758 0.00651176 0.02956170
v 0.00260758 -0.00660962 0.02956495
v 0.00917310 -0.00563030 0.00789289
v 0.00721613 -0.00605865 -0.00134240
v 0.00854960 0.00622028 0.00808761
v 0.01012198 0.00380204 0.02119534
v 0.01035878 0.00306794 0.02087081
v 0.00177241 0.00637103 0.03025052
v 0.00181862 -0.00621828 0.03025254
v 0.01004404 -0.00408324 0.02103308
v 0.00854363 -0.00631120 0.00792534
v 0.00604877 -0.00546065 -0.00238495
v 0.00935197 0.00523286 0.02144198
v 0.00637926 0.00758979 0.00775659
v 0.00740651 0.00709781 0.00808436
v 0.00851297 0.00618249 0.02251617
v 0.00588480 0.00536241 -0.00238495
v 0.00613182 0.00605333 -0.00175536
v 0.00554622 0.00782421 0.00822391
v 0.00853724 0.00575924 0.02282346
v 0.00672253 0.00734843 0.02409339
v 0.00161781 0.00748337 0.02922419
v 0.00103860 -0.00663430 0.03056450
v 0.00697593 -0.00719336 0.02409501
v 0.00860283 -0.00587127 0.02276525
v 0.00966798 -0.00466717 0.02186874
v 0.00935368 -0.00533033 0.02152474
v 0.00853597 -0.00630271 0.02217866
v 0.00740651 -0.00719567 0.00808761
v 0.00604707 -0.00783570 0.00826123
v 0.00618335 -0.00594491 -0.00223566
v 0.00554622 -0.00792207 0.00822716
v 0.00053562 0.00657191 0.03059939
v 0.00119032 -0.00762123 0.02938199
v 0.00656665 -0.00760282 0.02401550
v 0.00772678 -0.00695971 0.02283421
v 0.00604792 -0.00615851 -0.00175211
v 0.00739458 0.00708547 0.02283746
v 0.00015275 0.00587327 -0.00225838
v 0.00604707 0.00771625 0.02382078
v 0.00108800 0.00618095 0.03058235
v 0.00043724 -0.00627881 0.03069147
v 0.00557007 -0.00792052 0.02365852
v -0.00050312 0.00758208 0.00792210
v -0.00033873 0.00606220 -0.00175536
v 0.00557007 0.00782267 0.02366501
v -0.00050312 -0.00615929 -0.00175211
v -0.00033958 -0.00595263 -0.00224215
v -0.00049971 -0.00769227 0.00810384
v -0.00136001 -0.00759665 0.00758783
v 0.00015445 -0.00546065 -0.00242064
v -0.00019627 0.00536279 -0.00237602
v -0.00138812 0.00750419 0.00783610
v -0.00050312 0.00759133 0.02939944
v -0.00001250 0.00601824 0.03072676
v -0.00050142 -0.00769227 0.02939295
v -0.00141112 -0.00760436 0.02957793
v -0.00239620 -0.00735298 0.00760000
v -0.00190004 -0.00594723 -0.00118581
v -0.00106530 -0.00546065 -0.00211883
v -0.00256400 0.00720037 0.00755700
v -0.00165047 0.00603984 -0.00093268
v -0.00140601 0.00750496 0.02958442
v -0.00158233 0.00652564 0.03055963
v -0.00378758 0.00503275 0.03070404
v -0.00477054 -0.00357218 0.03071297
v -0.00168028 -0.00661733 0.03055476
v -0.00156188 0.00536279 -0.00181864
v -0.00182253 0.00570903 -0.00143732
v -0.00347839 -0.00580457 0.03055801
v -0.00267346 -0.00727741 0.02957793
v -0.00453545 -0.00604516 0.00340303
v -0.00462574 0.00587636 0.00329756
v -0.00302695 0.00702918 0.02949193
v -0.00566491 -0.00004893 0.03060993
v -0.00537466 -0.00333274 0.03056774
v -0.00176503 -0.00546065 -0.00161013
v -0.00397327 -0.00662350 0.02948382
v -0.00467344 -0.00601740 0.00382979
v -0.00369219 -0.00676423 0.00727385
v -0.00553118 -0.00484722 0.00329837
v -0.00335147 0.00686648 0.00742882
v -0.00467173 0.00591800 0.00382330
v -0.00593407 0.00360310 0.00298926
v -0.00562913 0.00461018 0.00326835
v -0.00432847 0.00491786 0.03057910
v -0.00542939 0.00315006 0.03054827
v -0.00593237 -0.00369787 0.00299250
v -0.00612402 0.00355529 0.00349552
v -0.00560358 -0.00498718 0.02958117
v -0.00612231 -0.00365392 0.00350201
v -0.00490746 -0.00584602 0.02915198
v -0.00584889 -0.00446899 0.00382979
v -0.00562487 0.00477520 0.00382330
v -0.00427438 0.00629431 0.02927287
v -0.00482463 0.00574295 0.02961849
v -0.00660357 0.00207936 0.00775983
v -0.00628032 0.00347895 0.00720489
v -0.00663849 -0.00127578 0.02965419
v -0.00657631 -0.00268462 0.02956819
v -0.00635570 -0.00332465 0.00743855
v -0.00660357 -0.00217722 0.00776308
v -0.00596814 -0.00440730 0.02939944
v -0.00543322 0.00512876 0.02923474
v -0.00596644 0.00430944 0.02939944
v -0.00626286 0.00360772 0.02959091
v -0.00671089 0.00011609 0.01333525
v -0.00671345 0.00109696 0.02923474
v -0.00657802 0.00258676 0.02956819
v -0.00668193 -0.00185027 0.02939944
f 1 3 4
f 1 5 6
f 1 6 2
f 1 7 3
f 1 4 5
f 4 8 9
f 4 9 5
f 2 6 10
f 2 10 11
f 3 7 13
f 3 13 12
f 8 4 14
f 9 15 5
f 2 11 16
f 2 16 7
f 2 7 1
f 12 17 3
f 3 14 4
f 8 18 9
f 8 14 19
f 8 19 18
f 10 20 11
f 11 20 21
f 12 13 22
f 3 17 14
f 19 24 18
f 9 25 15
f 5 15 26
f 5 26 6
f 21 20 27
f 21 27 28
f 12 23 17
f 12 22 23
f 22 30 23
f 7 16 29
f 7 29 13
f 9 32 25
f 19 33 34
f 19 34 24
f 24 35 18
f 19 14 36
f 19 37 38
f 19 38 33
f 26 25 10
f 26 10 6
f 20 39 40
f 20 10 39
f 27 20 41
f 28 42 21
f 21 43 44
f 21 44 45
f 21 45 11
f 13 29 46
f 13 46 22
f 22 46 47
f 22 47 30
f 23 48 49
f 23 30 48
f 23 50 31
f 23 31 17
f 23 49 51
f 31 14 17
f 9 18 32
f 35 32 18
f 14 31 36
f 19 36 37
f 15 25 26
f 10 25 39
f 43 21 54
f 43 54 55
f 44 43 55
f 11 45 16
f 29 45 46
f 29 16 45
f 47 46 44
f 23 56 50
f 23 51 56
f 25 32 39
f 24 34 35
f 40 39 35
f 40 41 20
f 52 60 27
f 27 60 28
f 21 42 53
f 28 60 42
f 54 21 53
f 55 47 44
f 30 55 48
f 30 47 55
f 46 45 44
f 32 35 39
f 35 57 40
f 38 59 33
f 34 57 35
f 36 58 37
f 38 37 64
f 38 64 63
f 37 58 64
f 38 65 59
f 40 57 59
f 59 65 41
f 41 40 59
f 27 41 52
f 42 60 61
f 62 54 53
f 50 66 67
f 50 56 66
f 49 62 51
f 51 68 69
f 51 69 66
f 51 66 56
f 31 70 36
f 34 33 57
f 36 70 71
f 36 71 58
f 63 72 73
f 63 73 38
f 64 72 63
f 38 73 65
f 59 57 33
f 65 73 41
f 52 74 60
f 60 74 61
f 41 73 52
f 53 75 62
f 54 48 55
f 62 49 54
f 48 54 49
f 50 67 31
f 31 67 70
f 51 75 68
f 51 62 75
f 68 75 69
f 75 76 69
f 69 77 78
f 69 78 66
f 67 79 70
f 70 79 71
f 58 71 64
f 72 64 81
f 72 81 80
f 52 84 74
f 73 83 52
f 74 84 85
f 74 85 61
f 42 61 86
f 75 53 76
f 66 78 67
f 72 82 73
f 71 87 64
f 64 88 81
f 83 73 82
f 85 89 61
f 42 86 76
f 42 76 53
f 69 76 77
f 77 91 78
f 79 87 71
f 81 88 92
f 81 92 80
f 82 93 83
f 87 88 64
f 52 83 84
f 85 84 94
f 85 95 89
f 61 89 86
f 78 96 79
f 78 79 67
f 91 99 98
f 77 99 91
f 76 90 77
f 78 91 100
f 80 92 101
f 72 80 82
f 92 102 101
f 79 96 87
f 88 103 104
f 88 87 103
f 88 104 92
f 84 105 106
f 85 94 95
f 78 100 96
f 90 89 97
f 76 86 90
f 90 99 77
f 90 97 99
f 98 100 91
f 80 93 82
f 87 96 107
f 87 107 103
f 104 103 108
f 83 105 84
f 84 106 94
f 96 100 107
f 100 110 107
f 100 98 112
f 101 93 80
f 104 113 92
f 92 113 102
f 101 102 114
f 101 114 93
f 93 114 115
f 93 105 83
f 103 107 108
f 108 116 117
f 108 117 113
f 108 113 104
f 95 109 89
f 100 112 110
f 110 112 120
f 110 120 121
f 97 109 111
f 90 86 89
f 98 109 112
f 115 105 93
f 107 110 108
f 108 110 121
f 108 121 116
f 118 119 94
f 94 119 95
f 97 111 98
f 97 98 99
f 97 89 109
f 98 111 109
f 112 109 122
f 122 120 112
f 113 124 123
f 113 123 102
f 102 123 114
f 116 121 126
f 116 127 128
f 116 128 117
f 117 128 125
f 117 124 113
f 124 117 125
f 106 125 128
f 106 128 94
f 94 128 118
f 106 105 125
f 95 119 109
f 109 119 122
f 122 119 120
f 118 129 119
f 120 119 121
f 121 119 129
f 124 125 123
f 123 115 114
f 126 121 129
f 126 129 127
f 116 126 127
f 118 127 129
f 115 123 125
f 115 125 105
f 128 127 118

