# https://github.com/mikedh/trimesh

o geometry_0
v 0.03443510 -0.00005242 0.03640439
v 0.03403196 0.00254071 0.03451388
v 0.03397628 -0.00118621 0.03319949
v 0.03359658 0.00238103 0.03754679
v 0.03362883 -0.00186187 0.03814964
v 0.03384930 -0.00272752 0.03413230
v 0.03297070 0.00251443 0.03122908
v 0.03256391 0.00441298 0.03219639
v 0.03317328 -0.00004684 0.03095282
v 0.03274293 0.00221020 0.03893095
v 0.03269757 -0.00274788 0.03874107
v 0.03196789 -0.00470984 0.03771384
v 0.03233475 -0.00300074 0.03008953
v 0.03301454 0.00448774 0.03545291
v 0.03067785 -0.00175356 0.03976415
v 0.03292636 -0.00458212 0.03545810
v 0.03068339 -0.00215893 0.02753651
v 0.03197192 0.00462094 0.03771384
v 0.03067785 0.00166306 0.03976415
v 0.03171140 -0.00489123 0.03061067
v 0.03215737 -0.00538739 0.03309547
v 0.03060125 0.00309661 0.02764079
v 0.03141257 0.00587878 0.03317641
v 0.02885666 0.00351114 0.03916753
v 0.03037448 -0.00636300 0.03101456
v 0.02980707 -0.00465171 0.02737517
v 0.00758602 -0.00344832 0.00070877
v 0.03076855 0.00026695 0.02743742
v 0.00758602 0.00335464 0.00070462
v 0.02939183 0.00499048 0.02715519
v 0.02972556 0.00622367 0.02959551
v 0.03075444 0.00586653 0.03646042
v 0.02907688 -0.00457525 0.03862226
v 0.03075948 -0.00642930 0.03345967
v 0.00761827 -0.00720262 0.00615826
v 0.00632016 -0.00341806 -0.00011717
v 0.02809675 -0.00604125 0.02671836
v 0.00761827 0.00711053 0.00615411
v 0.02809473 0.00594956 0.02671733
v 0.02815016 -0.00266306 0.03935741
v 0.02836433 -0.00723393 0.03084115
v 0.00633226 -0.00760561 0.00575567
v 0.02710603 -0.00698679 0.02733366
v 0.00087375 -0.00509053 -0.00222143
v 0.00632621 0.00316191 -0.00011509
v 0.00086972 0.00499685 -0.00221727
v 0.00632420 0.00751033 0.00576812
v 0.02710805 0.00689550 0.02733574
v 0.02767043 -0.00070587 0.03935741
v 0.02686012 0.00499526 0.03808323
v 0.03046116 -0.00617883 0.03608065
v 0.02497342 -0.00770277 0.02737102
v 0.00117006 0.00757285 0.00420756
v 0.02472499 0.00768136 0.02762004
v 0.02819148 0.00719022 0.03148862
v 0.02705564 0.00607121 0.03677066
v 0.02608559 -0.00624762 0.03649725
v -0.00083959 -0.00508575 -0.00221312
v -0.00078517 -0.00769082 0.00416814
v -0.00051103 0.00501278 -0.00224010
v 0.02057316 0.00808693 0.02632096
v 0.02646479 0.00331671 0.03848893
v 0.02686012 -0.00508416 0.03807908
v 0.02841019 -0.00718908 0.03389754
v 0.02067495 -0.00817902 0.02642784
v 0.02665855 0.00753741 0.03231831
v 0.02279143 0.00671870 0.03448067
v 0.02526973 0.00063967 0.03813096
v 0.02528384 -0.00782621 0.03100470
v 0.01174239 -0.00760401 0.02466495
v 0.00520952 -0.00761516 0.01724608
v -0.00056949 0.00760272 0.00438396
v 0.00656810 0.00757912 0.01817526
v 0.02137011 0.00565877 0.03481296
v 0.02334272 -0.00321199 0.03688169
v 0.02418478 -0.00702084 0.03439455
v -0.00164990 0.00436131 -0.00177733
v 0.02005916 0.00751670 0.03056268
v 0.01940909 -0.00721496 0.03165528
v -0.00377445 -0.00676937 0.00409758
v -0.00172045 0.00501676 -0.00143077
v -0.00334712 0.00688116 0.00407890
v 0.01448676 0.00299695 0.03200054
v 0.01568711 -0.00061946 0.03296058
v 0.00749128 -0.00720820 0.02221205
v -0.00187969 -0.00477913 -0.00139342
v 0.00175001 0.00712380 0.01344541
v 0.00918850 0.00710794 0.02381982
v 0.01938390 0.00709381 0.03169367
v 0.00985973 0.00583627 0.02699125
v 0.01885427 -0.00468142 0.03395642
v 0.01250231 -0.00251851 0.03090613
v 0.02270098 -0.00644095 0.03496990
v -0.00605974 -0.00036023 0.00314610
v -0.00631826 0.00343588 0.00402495
v 0.00319684 -0.00721019 0.01630394
v -0.00586271 -0.00467002 0.00408305
v -0.00617111 -0.00305719 0.00361509
v -0.00133898 -0.00622801 0.01110347
v -0.00529731 0.00521984 0.00429576
v 0.01135134 0.00457316 0.02925945
v 0.01049266 0.00156351 0.02969317
v 0.01036164 -0.00610516 0.02712199
v -0.00631423 -0.00348655 0.00458940
v -0.00113439 0.00597903 0.01178726
v 0.00671877 0.00599635 0.02388000
v 0.00970452 0.00366684 0.02860784
v 0.01237330 -0.00499257 0.02969836
v -0.00661557 -0.00041140 0.00445918
v -0.00633237 0.00323996 0.00465788
v 0.00198692 0.00625717 0.01696074
v 0.00881963 -0.00219477 0.02843767
v 0.00264064 -0.00590374 0.01883057
v -0.00250859 -0.00466763 0.01165548
v 0.00729778 -0.00333324 0.02681901
v 0.00681099 -0.00508973 0.02519931
v -0.00190186 0.00380302 0.01359372
v -0.00081943 -0.00212468 0.01667540
v -0.00400827 -0.00186426 0.01046535
v -0.00316268 0.00157526 0.01223420
v 0.00508656 0.00413752 0.02417935
v 0.00588881 0.00166306 0.02591007
v 0.00406813 -0.00334678 0.02349349
v 0.00110581 -0.00401497 0.01884503
v 0.00304768 0.00439436 0.02138042
v -0.00040470 0.00223946 0.01723286
v 0.00159789 0.00174200 0.02061544
v 0.00155329 -0.00201120 0.02051596
v 0.00332484 0.00163041 0.02303176
f 1 3 2
f 2 4 1
f 1 6 3
f 2 3 7
f 2 7 8
f 1 4 5
f 1 5 6
f 3 9 7
f 4 10 5
f 5 10 11
f 5 12 6
f 3 13 9
f 2 14 4
f 11 10 15
f 12 16 6
f 6 13 3
f 13 17 9
f 8 14 2
f 4 18 10
f 12 5 11
f 6 20 13
f 16 21 6
f 9 22 7
f 14 18 4
f 10 19 15
f 20 6 21
f 8 23 14
f 22 8 7
f 10 18 19
f 11 15 12
f 21 25 20
f 13 26 17
f 9 28 22
f 8 31 23
f 14 32 18
f 8 22 30
f 18 24 19
f 12 15 33
f 13 20 26
f 17 26 27
f 27 26 37
f 27 37 35
f 17 28 9
f 28 29 22
f 29 38 39
f 29 39 30
f 29 30 22
f 30 31 8
f 19 40 15
f 16 34 21
f 21 34 25
f 35 37 43
f 35 43 42
f 27 35 44
f 27 44 36
f 27 36 29
f 27 29 28
f 27 28 17
f 37 26 20
f 29 45 46
f 29 46 38
f 38 46 47
f 38 47 48
f 38 48 39
f 31 39 48
f 14 23 32
f 24 49 19
f 18 50 24
f 19 49 40
f 16 51 34
f 20 25 37
f 25 43 37
f 25 34 41
f 42 44 35
f 42 43 52
f 36 45 29
f 46 53 47
f 47 54 48
f 39 31 30
f 31 48 55
f 31 55 23
f 15 40 33
f 51 16 12
f 33 51 12
f 41 43 25
f 44 42 59
f 44 59 58
f 54 47 61
f 18 32 50
f 24 62 49
f 51 57 64
f 51 33 57
f 57 33 63
f 41 34 64
f 41 52 43
f 42 52 65
f 44 58 60
f 44 60 46
f 44 46 36
f 36 46 45
f 46 60 53
f 48 54 55
f 55 32 23
f 56 50 32
f 24 50 62
f 62 68 49
f 40 63 33
f 51 64 34
f 41 69 52
f 65 70 71
f 52 69 65
f 60 72 53
f 55 66 32
f 66 56 32
f 56 66 67
f 40 75 63
f 57 76 64
f 41 64 69
f 42 65 59
f 58 77 60
f 72 47 53
f 72 61 47
f 61 72 73
f 61 73 78
f 56 67 50
f 50 67 74
f 40 49 75
f 64 76 69
f 65 79 70
f 71 59 65
f 65 69 79
f 59 80 58
f 60 81 72
f 72 81 82
f 61 78 66
f 54 66 55
f 54 61 66
f 74 62 50
f 49 68 75
f 76 79 69
f 58 86 77
f 60 77 81
f 82 87 72
f 73 88 78
f 78 67 66
f 62 74 83
f 68 62 84
f 75 91 63
f 75 92 91
f 63 93 57
f 76 57 93
f 76 93 79
f 70 85 71
f 58 80 86
f 86 94 77
f 77 94 95
f 72 87 73
f 78 88 89
f 78 89 67
f 67 89 90
f 68 84 75
f 75 84 92
f 63 91 93
f 86 80 97
f 86 97 98
f 86 98 94
f 95 81 77
f 81 95 100
f 81 100 82
f 67 90 74
f 83 74 101
f 62 83 84
f 84 83 102
f 79 103 70
f 70 103 85
f 85 96 71
f 97 104 98
f 80 99 97
f 59 96 80
f 71 96 59
f 100 105 82
f 82 105 87
f 73 87 88
f 74 90 101
f 83 101 107
f 92 108 91
f 98 104 109
f 94 98 109
f 80 96 99
f 94 109 95
f 95 110 100
f 87 111 106
f 87 106 88
f 89 88 90
f 83 107 102
f 84 112 92
f 91 108 93
f 99 114 97
f 95 109 110
f 87 105 111
f 84 102 112
f 92 115 108
f 108 103 93
f 79 93 103
f 85 103 116
f 113 96 85
f 97 114 104
f 99 96 113
f 88 106 90
f 90 107 101
f 92 112 115
f 85 116 113
f 110 117 100
f 104 114 118
f 104 119 109
f 109 120 110
f 110 120 117
f 105 100 117
f 107 122 102
f 104 118 119
f 109 119 120
f 105 117 111
f 90 106 121
f 90 121 107
f 121 106 125
f 123 113 116
f 123 124 113
f 113 114 99
f 114 124 118
f 114 113 124
f 120 126 117
f 111 125 106
f 102 122 112
f 108 116 103
f 119 118 120
f 125 111 117
f 112 123 115
f 108 115 116
f 115 123 116
f 118 126 120
f 117 126 125
f 107 121 122
f 123 112 129
f 112 122 129
f 124 123 128
f 118 124 128
f 127 129 126
f 121 125 129
f 121 129 122
f 128 127 126
f 128 126 118
f 126 129 125
f 123 129 128
f 128 129 127

o geometry_1
v 0.00511925 0.00193818 0.01221779
v 0.00494242 0.00193818 0.01201750
v 0.00493579 0.00193818 0.01221779
v 0.00504750 -0.00180224 0.01221779
v 0.00493579 0.00193818 0.01201086
v 0.00503401 -0.00180224 0.01220421
v 0.00496709 -0.00180224 0.01213698
v 0.00493579 -0.00180224 0.01210554
v 0.00493579 -0.00180224 0.01221779
f 130 131 134
f 130 134 132
f 130 132 138
f 130 138 133
f 130 133 131
f 131 133 135
f 131 135 136
f 131 136 137
f 131 137 134
f 132 134 137
f 132 137 138
f 133 138 137
f 133 137 136
f 133 136 135

