# https://github.com/mikedh/trimesh

o geometry_0
v 0.00511100 0.01822272 0.00317371
v 0.00511100 0.01821537 0.00201761
v 0.00517430 0.01816711 0.00402230
v 0.00551361 0.01820698 0.00330203
v 0.00553767 0.01822482 0.00290050
v 0.00517937 0.01817340 0.00155045
v -0.00974765 0.00200671 -0.00260321
v -0.00974512 0.00200671 0.00253091
v 0.00489830 0.01790480 0.00452968
v 0.01518895 0.01147296 0.00317666
v 0.00490590 0.01789850 0.00084674
v -0.00973753 0.00199412 -0.00275342
v -0.01011482 0.00144851 -0.00247430
v -0.00973499 0.00199412 0.00269885
v 0.00496920 0.01766767 0.00501222
v 0.00437921 0.01715144 0.00554799
v 0.01545990 0.01123163 0.00210040
v 0.00569846 0.01802966 0.00199041
v -0.00952736 0.00216409 -0.00276643
v -0.01005151 0.00142963 -0.00279186
v 0.00439693 0.01712416 -0.00016684
v 0.00362716 0.01610010 -0.00068250
v 0.00475587 0.01736129 0.00010400
v -0.01019774 0.00124916 0.00246675
v -0.01002619 0.00153035 0.00273078
v 0.00050249 0.01155689 0.00630019
v 0.00310301 0.01534255 0.00627180
v 0.00385759 0.01639389 0.00604591
v 0.00432603 0.01681516 0.00587382
v 0.00592888 0.01762570 0.00418078
v 0.01468506 0.01147925 0.00421035
v 0.01547002 0.01124212 0.00325472
v 0.00541739 0.01788381 0.00113650
v 0.00337648 0.01557968 -0.00093205
v -0.00129281 0.00896737 -0.00275933
v -0.00188786 0.00236765 -0.00539913
v -0.01031232 0.00081477 -0.00260321
v -0.01026484 0.00084730 0.00272576
v 0.00337521 0.01506555 0.00638830
v 0.00388797 0.01609381 0.00625525
v 0.01494840 0.01071331 0.00498502
v 0.01544977 0.01096932 0.00397736
v 0.01545230 0.01095673 0.00158947
v 0.01521934 0.01098191 0.00108564
v 0.00511227 0.01740641 0.00032635
v 0.00401711 0.01617145 -0.00070379
v 0.00029865 0.00287128 -0.00547541
v -0.00047112 0.00287128 -0.00546536
v -0.00123963 0.00261527 -0.00546240
v -0.00240189 0.00158701 -0.00547601
v -0.01029206 0.00055876 -0.00279954
v -0.00265763 0.00107288 -0.00547955
v -0.01034777 0.00042970 -0.00260321
v 0.00453114 0.01678001 -0.00037145
v -0.01035284 0.00055876 0.00253091
v -0.01010469 0.00055876 0.00287744
v 0.00094055 0.01134495 0.00639007
v -0.00296656 0.00004463 0.00547703
v 0.01435208 0.01010579 0.00576561
v 0.01547002 0.01091896 0.00201761
v 0.01496613 0.01048247 0.00031688
v 0.00171539 0.00235925 -0.00546418
v 0.00119883 0.00261527 -0.00547719
v 0.00042146 0.00068781 -0.00568712
v -0.00057304 -0.00043514 -0.00568963
v 0.01443437 0.00970394 -0.00042940
v 0.01378108 0.00930313 -0.00071562
v -0.01023636 -0.00035198 0.00267756
v -0.00278677 -0.00111793 0.00548649
v 0.01326199 0.00826228 0.00638180
v 0.00453114 0.01673594 0.00587915
v 0.01493321 0.01044680 0.00522984
v 0.01494080 0.01017400 0.00524522
v 0.01387983 0.00903242 -0.00075642
v -0.01010469 -0.00020929 -0.00284094
v -0.00291338 -0.00020929 -0.00545945
v -0.01023636 -0.00035198 -0.00274159
v 0.01466227 0.01043421 0.00010163
v -0.00034578 -0.00072342 0.00568991
v 0.01056398 0.00467178 0.00638771
v -0.00959066 -0.00097943 0.00287034
v 0.01386970 0.00913735 0.00625052
v 0.01377348 0.00954655 0.00615235
v 0.01452047 0.00980256 0.00580937
v 0.01366207 0.00836930 0.00626826
v 0.00234716 0.00171502 -0.00546063
v 0.00273078 0.00081687 -0.00548192
v 0.00067721 -0.00046740 -0.00569008
v -0.00240189 -0.00149566 -0.00548428
v -0.00975525 -0.00114416 0.00262138
v -0.00161312 -0.00250293 0.00548412
v -0.00075093 -0.00291003 0.00548649
v 0.01082100 0.00428776 0.00625288
v 0.01418243 0.00912580 -0.00054176
v 0.01082100 0.00428566 -0.00195982
v 0.00298653 0.00004463 -0.00540859
v 0.00273078 -0.00072342 -0.00548665
v -0.00002736 -0.00277993 -0.00548813
v -0.00195560 -0.00220389 -0.00543609
v -0.00977677 -0.00105812 -0.00277826
v -0.00976285 -0.00115151 -0.00260321
v -0.00920830 -0.00162366 0.00266574
v 0.00081141 -0.00290793 0.00548531
v 0.01069186 0.00441367 0.00634158
v 0.00954226 0.00247887 0.00420917
v 0.01006642 0.00323642 -0.00224131
v 0.01032976 0.00372327 -0.00223066
v 0.00095068 -0.00294256 -0.00534827
v -0.00104719 -0.00293102 -0.00533763
v -0.00920830 -0.00162366 -0.00273213
v -0.00846639 -0.00189017 0.00269057
v -0.00047492 -0.00308945 0.00509974
v 0.00003784 -0.00312723 0.00509974
v 0.00183693 -0.00239590 0.00548649
v 0.00160651 -0.00266871 0.00528425
v 0.00168627 -0.00263618 0.00509974
v 0.00162170 -0.00267920 -0.00517087
v 0.00267507 -0.00149566 -0.00537548
v 0.00132037 -0.00252234 -0.00547216
v 0.00202684 -0.00232141 -0.00535537
v 0.00042146 -0.00310099 -0.00517087
v -0.00034831 -0.00310939 -0.00517087
v -0.00804858 -0.00198670 0.00253091
v -0.00060659 -0.00308421 -0.00234539
v 0.00067974 -0.00305483 0.00509974
v 0.00131341 -0.00283554 0.00509974
v -0.00804858 -0.00198670 -0.00260321
v -0.00846639 -0.00189017 -0.00274869
v 0.00095827 -0.00297456 -0.00517087
f 1 4 5
f 1 6 2
f 1 5 6
f 2 7 1
f 1 7 8
f 1 8 9
f 1 9 3
f 1 3 4
f 5 4 10
f 2 6 11
f 2 11 7
f 7 12 13
f 7 11 12
f 7 13 8
f 8 14 9
f 9 15 3
f 9 14 16
f 9 16 15
f 5 10 17
f 5 18 6
f 12 20 13
f 12 11 21
f 12 21 22
f 12 22 19
f 11 23 21
f 8 13 24
f 8 24 25
f 8 25 14
f 14 25 26
f 14 26 27
f 14 27 28
f 14 28 16
f 15 16 29
f 15 30 3
f 3 30 4
f 4 30 10
f 10 30 31
f 10 31 32
f 5 17 18
f 6 33 11
f 19 22 34
f 19 34 35
f 19 36 12
f 19 35 36
f 20 37 13
f 22 21 34
f 11 33 23
f 24 38 25
f 27 40 28
f 28 40 29
f 28 29 16
f 31 42 32
f 10 32 17
f 17 32 43
f 17 43 44
f 18 33 6
f 18 17 33
f 33 45 23
f 34 21 46
f 34 46 47
f 34 47 48
f 34 48 49
f 34 49 35
f 35 49 36
f 36 49 50
f 36 50 12
f 12 50 20
f 20 51 37
f 20 50 52
f 20 52 51
f 37 51 53
f 21 23 54
f 21 54 46
f 24 13 37
f 24 37 55
f 38 24 55
f 25 38 56
f 25 56 26
f 26 56 58
f 26 58 57
f 27 39 40
f 41 31 15
f 15 31 30
f 32 42 60
f 32 60 43
f 43 61 44
f 33 17 44
f 45 33 44
f 46 62 63
f 46 63 47
f 47 63 64
f 47 64 48
f 48 64 49
f 49 64 50
f 52 50 65
f 53 55 37
f 55 68 38
f 57 58 69
f 26 57 39
f 26 39 27
f 56 38 68
f 29 40 71
f 29 59 15
f 59 29 71
f 59 72 15
f 15 72 41
f 41 72 42
f 42 72 73
f 42 73 60
f 46 67 62
f 62 67 74
f 64 65 50
f 51 52 76
f 51 76 75
f 65 76 52
f 53 51 77
f 53 77 55
f 54 23 78
f 54 78 66
f 66 46 54
f 46 66 67
f 23 45 61
f 23 61 78
f 57 79 80
f 57 69 79
f 69 58 56
f 69 56 81
f 39 70 40
f 59 71 83
f 72 59 84
f 41 42 31
f 72 84 73
f 61 43 66
f 61 66 78
f 45 44 61
f 62 86 64
f 62 64 63
f 62 74 86
f 74 67 66
f 64 86 87
f 64 87 88
f 65 89 76
f 76 89 75
f 51 75 77
f 77 68 55
f 68 90 81
f 68 81 56
f 79 69 91
f 79 91 92
f 79 92 80
f 57 80 39
f 39 80 70
f 69 81 91
f 70 82 40
f 40 82 83
f 71 40 83
f 59 83 82
f 59 82 84
f 73 85 60
f 43 60 94
f 43 94 66
f 60 93 95
f 60 95 94
f 74 87 86
f 74 66 94
f 87 74 96
f 88 87 97
f 64 88 65
f 87 96 97
f 65 98 99
f 65 99 89
f 89 100 75
f 75 100 77
f 77 100 101
f 68 101 90
f 90 102 81
f 91 81 102
f 92 91 102
f 80 92 103
f 80 103 104
f 70 85 82
f 73 84 85
f 85 84 82
f 60 85 93
f 93 105 95
f 95 105 106
f 94 95 107
f 94 107 74
f 74 107 96
f 65 88 98
f 98 109 99
f 98 108 109
f 99 100 89
f 100 110 101
f 101 68 77
f 102 111 92
f 92 111 112
f 92 112 113
f 92 113 103
f 104 93 80
f 104 103 114
f 104 114 93
f 80 93 70
f 103 115 114
f 70 93 85
f 105 93 115
f 105 115 116
f 105 116 117
f 105 117 106
f 95 106 107
f 96 107 97
f 88 97 119
f 88 119 98
f 97 120 119
f 108 121 122
f 108 122 109
f 99 109 110
f 99 110 100
f 90 101 110
f 90 110 102
f 111 123 112
f 112 122 113
f 112 124 122
f 93 114 115
f 103 113 125
f 103 126 115
f 103 125 126
f 115 126 116
f 106 117 120
f 106 120 118
f 117 108 120
f 107 106 118
f 107 118 97
f 97 118 120
f 98 119 108
f 121 113 122
f 122 127 128
f 122 128 109
f 109 128 110
f 110 111 102
f 111 110 128
f 111 128 123
f 123 128 127
f 123 127 124
f 123 124 112
f 125 113 121
f 126 125 129
f 116 126 117
f 117 126 129
f 117 129 108
f 119 120 108
f 122 124 127
f 121 108 129
f 121 129 125

