# https://github.com/mikedh/trimesh

o geometry_0
v 0.00037207 -0.01371054 0.07217942
v -0.00186528 -0.01349501 0.07431422
v -0.00320905 -0.01345257 0.06321013
v 0.00037401 -0.01353135 0.06321456
v -0.00421676 -0.01350916 0.07341419
v -0.00298469 -0.01101992 0.00495631
v -0.00030103 -0.01107317 0.00495631
v 0.00372883 -0.01352081 0.07307502
v 0.00396373 -0.01329321 0.06262100
v 0.00523106 -0.01317685 0.07449379
v 0.00328494 -0.01095778 0.00496518
v 0.00372883 -0.00858782 0.08414143
v -0.00388021 -0.00859447 0.08415916
v -0.00583117 -0.01318129 0.07448936
v -0.00343342 -0.01071812 0.00415825
v 0.00328494 -0.01069926 0.00416712
v -0.00534561 -0.01315799 0.06184013
v -0.00477670 -0.01082464 0.00495631
v -0.00614131 -0.01044851 0.00466369
v -0.00109769 -0.00334416 -0.00362282
v 0.00158112 -0.00333084 -0.00360952
v 0.00605292 -0.00963300 0.00358187
v 0.00511766 -0.01057610 0.00466812
v 0.00432584 -0.00799089 0.08452272
v 0.00748634 -0.01191753 0.07506130
v 0.00328010 -0.00769908 0.08514787
v -0.00482516 -0.00698565 0.08522324
v -0.00489494 -0.00795538 0.08447839
v -0.00768231 -0.01237355 0.07468887
v -0.00664334 -0.00962190 0.00358187
v 0.00166641 -0.00170649 -0.00454945
v 0.00690774 -0.00958862 0.00444200
v 0.00579125 -0.01036751 0.00496518
v 0.00597054 -0.01278630 0.06142337
v 0.00428998 -0.00673379 0.08528974
v 0.00875694 -0.01059164 0.07548693
v -0.00939194 -0.01062936 0.07551353
v -0.00657647 -0.01279961 0.06141893
v -0.00749235 -0.00957530 0.00447747
v -0.00838205 -0.00781780 0.00447747
v -0.00211727 -0.00158000 -0.00449625
v 0.00777807 -0.00780005 0.00449521
v 0.00745630 -0.00869100 0.00496518
v 0.00699691 -0.01232917 0.06142337
v 0.00350446 -0.00596821 0.08554246
v 0.00924444 -0.00609636 0.07712738
v 0.00911360 -0.00999693 0.07485735
v -0.00343148 -0.00596821 0.08560453
v -0.00956930 -0.00689134 0.07752641
v -0.00993081 -0.00552994 0.07711851
v -0.00981838 -0.00999914 0.07485735
v -0.00915740 -0.01119300 0.07396175
v -0.00762803 -0.01234026 0.06141450
v -0.00802830 -0.00869988 0.00495631
v -0.00119364 -0.00036839 -0.00486424
v -0.00853325 -0.00551885 0.00424692
v 0.00795930 -0.01155194 0.06299288
v 0.00182342 0.00030288 -0.00469133
v 0.00806204 -0.00596266 0.00496518
v 0.00885870 -0.01027653 0.06277120
v 0.00423862 -0.00496186 0.08522324
v -0.00480578 -0.00501512 0.08520550
v -0.00860012 -0.01158023 0.06297737
v -0.00936480 -0.01060717 0.06231010
v -0.00869607 -0.00551885 0.00495631
v 0.00791957 -0.00551441 0.00426466
v 0.00918919 -0.00910264 0.06366237
v 0.00950708 -0.00437270 0.07653327
v 0.00283137 -0.00433164 0.08507250
v 0.00957105 -0.00527031 0.07576181
v -0.01010817 -0.00437492 0.07653771
v -0.00988525 -0.00910042 0.06364463
v -0.00343148 -0.00433164 0.08506363
v -0.00212890 0.00137136 -0.00451398
v 0.00159760 0.00262846 -0.00408392
v 0.00782265 0.00503948 0.00444200
v 0.00811922 -0.00462012 0.00496518
v 0.00786917 0.00669934 0.07275579
v 0.00687479 0.00748046 0.07352725
v -0.00747490 0.00748046 0.07352725
v -0.00846540 0.00669934 0.07275579
v -0.00978349 -0.00305624 0.05424971
v -0.00851192 0.00299350 0.00432673
v -0.00865633 0.00299350 0.00495631
v -0.00842082 0.00507499 0.00444200
v 0.00688836 0.00749155 0.00451294
v 0.00740493 0.00657619 0.00497404
v 0.00802521 0.00299017 0.00497404
v 0.00338186 0.00839249 0.07444058
v 0.00870363 0.00534904 0.07161191
v 0.00702210 0.00758253 0.07217942
v 0.00504110 0.00836808 0.07307502
v 0.00915333 0.00388557 0.07128382
v -0.00097170 0.00848347 0.07452926
v -0.00398197 0.00839249 0.07444058
v -0.00564121 0.00836808 0.07307502
v -0.00930084 0.00534571 0.07161634
v -0.00984746 0.00344175 0.07128382
v -0.01016147 -0.00058586 0.07260505
v -0.00212502 0.00305341 -0.00361838
v -0.00748847 0.00749377 0.00449521
v 0.00134755 0.00400761 -0.00283363
v 0.00529502 0.00845907 0.00441540
v 0.00862319 0.00556096 0.05873657
v 0.00900989 0.00388557 0.05873657
v 0.00952453 0.00007875 0.07194444
v 0.00250015 0.00861690 0.07352281
v 0.00710933 0.00766686 0.05873657
v 0.00794864 0.00681917 0.05873657
v -0.00771138 0.00766464 0.05874544
v -0.00131140 0.00399153 -0.00281146
v -0.00588157 0.00845463 0.00440654
v -0.00836267 0.00566526 0.00495631
v 0.00463017 0.00871204 0.00495631
v 0.00584552 0.00830373 0.00497404
v 0.00588429 0.00834589 0.05873657
v -0.00221782 0.00866544 0.07307502
v -0.00647858 0.00834589 0.05874544
v -0.00854488 0.00682139 0.05874544
v -0.00922136 0.00556318 0.05874544
v -0.00642431 0.00828598 0.00495631
v -0.00388506 0.00887070 0.00540411
v -0.00343536 0.00862550 0.00429126
v 0.00373271 0.00883853 0.00495631
v 0.00418047 0.00872757 0.05873657
v -0.00209013 0.00891952 0.05873657
v -0.00455524 0.00874588 0.05874544
v 0.00238845 0.00889511 0.05873657
v -0.00030006 0.00895281 0.00585191
f 1 2 3
f 1 3 4
f 3 2 5
f 4 3 6
f 4 6 7
f 1 4 9
f 1 9 8
f 1 8 10
f 1 10 2
f 4 7 11
f 4 11 9
f 2 12 13
f 5 2 14
f 6 15 7
f 7 15 16
f 7 16 11
f 10 12 2
f 13 14 2
f 5 17 3
f 3 17 18
f 3 18 6
f 6 18 19
f 6 19 15
f 15 20 21
f 15 21 16
f 16 21 22
f 16 22 23
f 16 23 11
f 11 23 9
f 12 10 25
f 12 24 26
f 12 26 13
f 13 27 28
f 13 29 14
f 5 14 17
f 19 30 15
f 15 30 20
f 8 9 10
f 21 31 22
f 23 32 33
f 23 22 32
f 23 34 9
f 24 35 26
f 24 12 25
f 24 25 36
f 24 36 35
f 13 26 27
f 28 27 37
f 28 37 13
f 13 37 29
f 17 14 38
f 17 38 18
f 18 38 19
f 30 39 40
f 30 40 41
f 30 41 20
f 19 39 30
f 20 31 21
f 9 34 10
f 31 42 32
f 31 32 22
f 32 42 43
f 33 44 34
f 33 34 23
f 35 45 26
f 35 36 46
f 36 25 47
f 27 49 37
f 37 49 50
f 37 50 51
f 37 51 52
f 39 54 40
f 41 40 56
f 19 38 53
f 19 53 39
f 20 41 31
f 10 44 25
f 25 44 57
f 10 34 44
f 31 55 58
f 43 60 32
f 32 60 57
f 32 57 44
f 32 44 33
f 35 61 45
f 35 46 61
f 25 57 47
f 47 46 36
f 26 45 48
f 26 48 27
f 48 62 27
f 27 62 50
f 27 50 49
f 37 52 29
f 29 52 53
f 53 38 29
f 29 38 14
f 39 53 63
f 39 63 64
f 39 64 54
f 54 64 40
f 55 31 41
f 40 65 56
f 58 55 74
f 31 58 66
f 31 66 42
f 42 66 59
f 59 67 42
f 42 67 60
f 42 60 43
f 61 46 68
f 45 61 69
f 57 60 47
f 47 70 46
f 47 67 70
f 50 62 71
f 51 50 72
f 52 64 63
f 52 63 53
f 48 73 62
f 48 45 69
f 48 69 73
f 64 52 51
f 40 64 72
f 40 72 65
f 64 51 72
f 41 74 55
f 41 56 74
f 58 74 75
f 58 75 76
f 58 76 66
f 59 66 77
f 59 77 70
f 59 70 67
f 60 67 47
f 61 68 78
f 61 78 79
f 46 70 68
f 62 80 81
f 62 81 71
f 71 72 50
f 72 82 65
f 74 56 83
f 56 65 84
f 56 84 83
f 74 83 85
f 75 86 76
f 76 86 87
f 76 88 66
f 66 88 77
f 61 79 89
f 61 89 69
f 78 91 79
f 68 93 90
f 68 90 78
f 69 89 94
f 69 94 73
f 73 95 62
f 62 95 80
f 81 97 71
f 71 97 98
f 71 99 72
f 73 94 95
f 65 82 84
f 74 85 101
f 74 101 100
f 83 84 85
f 82 99 84
f 75 111 102
f 75 102 103
f 75 103 86
f 87 104 76
f 76 104 105
f 76 105 88
f 88 105 106
f 88 106 77
f 79 92 89
f 78 108 91
f 78 90 109
f 78 109 108
f 79 91 92
f 93 68 106
f 89 107 94
f 80 95 96
f 81 80 110
f 98 99 71
f 72 99 82
f 94 107 95
f 100 101 112
f 100 112 111
f 85 113 101
f 85 84 98
f 85 98 113
f 74 100 75
f 75 100 111
f 86 103 115
f 87 86 109
f 87 109 104
f 104 90 93
f 104 93 105
f 105 93 106
f 77 106 70
f 70 106 68
f 89 92 107
f 109 86 108
f 91 108 116
f 91 116 92
f 107 117 95
f 95 117 96
f 96 118 80
f 81 119 97
f 97 119 120
f 97 120 98
f 98 120 113
f 98 84 99
f 101 121 112
f 113 120 101
f 102 111 123
f 102 123 103
f 103 124 114
f 114 124 125
f 114 125 116
f 114 116 115
f 114 115 103
f 115 116 108
f 115 108 86
f 109 90 104
f 92 125 107
f 96 117 127
f 118 110 80
f 118 112 121
f 118 121 110
f 81 110 119
f 119 110 101
f 119 101 120
f 101 110 121
f 112 118 127
f 112 127 122
f 112 123 111
f 112 122 123
f 123 124 103
f 124 128 125
f 125 128 107
f 116 125 92
f 107 128 117
f 117 128 126
f 126 128 129
f 126 129 122
f 127 118 96
f 117 126 127
f 122 127 126
f 123 122 124
f 124 122 129
f 124 129 128

