# https://github.com/mikedh/trimesh

o geometry_0
v -0.00136732 -0.00617767 0.00393284
v -0.00518274 -0.00572623 0.00167808
v 0.00472018 -0.00574862 0.00196063
v -0.00524358 -0.00497791 0.00051372
v 0.00489156 -0.00497578 0.00051751
v 0.00223703 -0.00611425 0.00407507
v -0.00677241 -0.00500989 0.00188668
v -0.00726871 -0.00323930 -0.00042877
v 0.00643821 -0.00492381 0.00169562
v 0.00408056 -0.00534461 0.00636966
v -0.00012458 -0.00487455 0.01041410
v -0.00323272 -0.00552796 0.00687409
v -0.00834403 0.00508814 -0.00779990
v 0.00768300 0.00545163 -0.00822847
v -0.00826701 -0.00346849 0.00085885
v -0.00803313 0.00681183 -0.00910080
v 0.00782680 -0.00116783 -0.00190271
v 0.00788837 -0.00348901 0.00114947
v 0.00641920 -0.00384771 0.00797397
v 0.00280594 -0.00447197 0.01116198
v -0.00590722 -0.00455578 0.00701442
v -0.00976161 0.00443362 -0.00540101
v 0.00768300 0.00696319 -0.00915958
v 0.00941339 0.00576716 -0.00674552
v -0.00373787 -0.00376673 0.01281216
v -0.00730484 -0.00326701 0.00735955
v -0.00844861 -0.00215893 0.00502135
v -0.00941173 -0.00042191 -0.00106784
v 0.00479411 -0.00389168 0.01144619
v -0.00675221 -0.00156011 0.01414613
v -0.00793900 0.00846303 -0.00953222
v -0.00938511 0.00966439 -0.00828916
v 0.00768300 0.00827222 -0.00955213
v 0.00878589 -0.00168617 0.00035442
v 0.00930500 0.00166527 -0.00261337
v 0.00912056 0.00916924 -0.00814029
v 0.00817360 -0.00162327 0.00856279
v 0.00165706 -0.00303676 0.01573337
v -0.00208675 -0.00287160 0.01589729
v 0.00690385 -0.00196759 0.01296328
v 0.00404458 -0.00255174 0.01575915
v -0.00490930 -0.00183351 0.01654223
v -0.00862165 0.00134335 0.01383560
v -0.00981914 0.00880014 0.00732305
v 0.00953889 0.00788420 0.00533804
v 0.00906684 0.00251966 0.01377586
v 0.00925747 0.01027626 0.01174582
v 0.00798962 0.00010548 0.01450975
v 0.00567261 -0.00073265 0.01816971
v -0.00687501 0.00132146 0.01961509
v -0.00937941 0.00346891 0.01169082
v -0.00976352 0.00705274 0.01077299
v 0.00756083 0.01071384 -0.00926199
v 0.00826487 0.01191574 -0.00713238
v 0.00366507 0.00002580 0.02085780
v -0.00031803 -0.00114312 0.01956211
v -0.00823754 0.00467134 0.02088814
v -0.00861119 0.01192000 -0.00713617
v -0.00776881 0.01083270 -0.00926767
v 0.00777938 0.00268089 0.01979608
v -0.00542702 0.00171284 0.02192686
v -0.00899720 0.00423642 0.01704233
v -0.00939082 0.01117595 0.01337478
v 0.00898483 0.01075915 0.01658484
v 0.00903118 0.00575011 0.01898799
v 0.00853251 0.01213640 0.01657251
v 0.00033877 0.00058430 0.02210109
v -0.00360827 0.00003646 0.02084642
v 0.00849828 0.00842892 0.02254176
v 0.00691669 0.01186031 -0.00860774
v 0.00549197 0.00146807 0.02172727
v -0.00954579 0.00960256 0.01510426
v -0.00857886 0.01264807 0.01702147
v 0.00678453 0.01348699 -0.00591492
v 0.00033419 0.00263532 0.02438395
v -0.00360280 0.00222931 0.02356721
v -0.00928148 0.00719451 0.01752590
v -0.00713941 0.01349126 -0.00578976
v -0.00726681 0.01186031 -0.00860774
v 0.00714107 0.01310750 0.02323962
v 0.00750996 0.01081138 0.02510942
v 0.00137754 0.01374922 -0.00675785
v 0.00729414 0.01353576 0.01864617
v 0.00667198 0.00391649 0.02334510
v 0.00444268 0.00280494 0.02388959
v -0.00690243 0.00423529 0.02318178
v -0.00896321 0.01016940 0.01986885
v -0.00759292 0.01360105 0.01855373
v -0.00801542 0.01277831 0.02154001
v 0.00769512 0.00730164 0.02422738
v -0.00036617 0.01447835 -0.00539911
v 0.00414996 0.01432059 -0.00551100
v -0.00449819 0.01432059 -0.00550910
v 0.00160168 0.01542761 0.02266407
v 0.00411574 0.01500282 0.02181735
v 0.00613135 0.01429500 0.01989445
v 0.00644754 0.00688181 0.02569415
v 0.00266939 0.00438259 0.02584805
v -0.00535387 0.00558062 0.02585089
v -0.00748739 0.00711510 0.02435941
v 0.00557801 0.01268751 0.02699440
v 0.00569662 0.00560940 0.02566695
v -0.00298392 0.00519707 0.02632866
v -0.00845865 0.00837568 0.02238294
v -0.00600705 0.01444744 0.02171495
v -0.00348182 0.01518830 0.02205060
v 0.00649211 0.00946585 0.02649957
v -0.00036617 0.01552515 0.02219662
v -0.00758817 0.00959790 0.02484583
v -0.00715224 0.01173985 0.02516916
v -0.00629893 0.01344329 0.02525544
v 0.00519010 0.01460201 0.02353924
v 0.00183866 0.01503479 0.02592296
v -0.00192759 0.01513919 0.02544691
v 0.00476570 0.01158728 0.02786458
v 0.00161255 0.00723842 0.02774974
v -0.00246961 0.00877616 0.02831473
v -0.00474503 0.00790326 0.02731535
v -0.00619542 0.00911941 0.02662318
v -0.00539957 0.01201621 0.02729248
v 0.00463390 0.00806249 0.02748247
v 0.00366745 0.01412685 0.02685264
v 0.00325553 0.00990263 0.02844463
v -0.00408294 0.01461213 0.02572194
v 0.00016816 0.00999484 0.02891730
v -0.00325649 0.01384303 0.02777190
v 0.00027413 0.01408296 0.02825825
v 0.00175380 0.01253594 0.02880008
v -0.00371808 0.01101765 0.02837873
f 1 2 3
f 2 4 3
f 3 4 5
f 3 6 1
f 4 2 8
f 3 5 9
f 3 10 6
f 1 6 11
f 2 7 8
f 8 13 4
f 4 13 14
f 4 14 5
f 5 14 17
f 3 9 19
f 3 19 10
f 6 10 20
f 6 20 11
f 1 11 12
f 2 1 12
f 2 12 21
f 2 21 7
f 7 15 8
f 13 16 14
f 7 26 27
f 7 27 15
f 8 15 28
f 8 28 13
f 16 23 14
f 14 23 24
f 17 18 5
f 5 18 9
f 19 29 10
f 10 29 20
f 12 25 21
f 21 26 7
f 21 30 26
f 15 27 28
f 13 28 22
f 13 31 16
f 23 33 24
f 18 17 34
f 24 35 14
f 14 35 17
f 18 37 19
f 18 19 9
f 11 20 38
f 11 39 12
f 12 39 25
f 22 32 13
f 16 31 23
f 23 31 33
f 17 35 34
f 20 29 41
f 19 40 29
f 11 38 39
f 21 25 42
f 13 32 31
f 24 36 45
f 19 37 40
f 18 34 37
f 20 41 38
f 21 42 30
f 26 30 27
f 22 44 32
f 33 36 24
f 36 47 45
f 35 46 34
f 34 46 37
f 37 48 40
f 41 29 40
f 40 48 49
f 25 39 42
f 27 30 43
f 28 27 43
f 28 43 51
f 28 52 22
f 33 53 36
f 24 45 35
f 36 53 54
f 40 49 41
f 38 41 55
f 38 55 56
f 38 56 39
f 42 50 30
f 30 50 57
f 28 51 52
f 31 59 33
f 35 45 46
f 36 54 47
f 37 46 48
f 48 60 49
f 42 61 50
f 30 57 43
f 22 52 44
f 43 57 62
f 32 44 63
f 32 63 58
f 32 58 59
f 31 32 59
f 59 53 33
f 47 64 65
f 45 47 65
f 41 49 55
f 55 67 56
f 42 39 68
f 42 68 61
f 51 43 62
f 47 66 64
f 45 65 46
f 54 66 47
f 46 60 48
f 60 71 49
f 56 68 39
f 44 72 63
f 58 63 73
f 64 69 65
f 53 70 54
f 49 71 55
f 55 75 67
f 68 56 76
f 52 51 72
f 52 72 44
f 58 79 59
f 53 59 70
f 64 66 81
f 70 59 79
f 70 79 82
f 74 83 66
f 74 66 54
f 66 83 80
f 70 74 54
f 60 84 71
f 71 85 55
f 55 85 75
f 56 67 76
f 50 86 57
f 51 62 77
f 77 72 51
f 72 87 63
f 58 73 78
f 78 73 88
f 63 89 73
f 58 78 79
f 80 81 66
f 64 81 69
f 65 90 60
f 46 65 60
f 76 61 68
f 61 86 50
f 65 69 90
f 69 81 90
f 91 82 93
f 91 92 82
f 70 92 74
f 92 94 95
f 92 95 74
f 71 84 85
f 60 90 84
f 85 98 75
f 76 67 75
f 61 76 99
f 86 100 57
f 72 77 87
f 82 79 93
f 82 92 70
f 74 96 83
f 74 95 96
f 84 102 85
f 90 97 84
f 97 102 84
f 76 103 99
f 61 99 86
f 62 57 104
f 62 104 77
f 87 77 104
f 63 87 89
f 78 88 105
f 79 78 93
f 93 78 106
f 80 101 81
f 81 101 107
f 81 107 90
f 90 107 97
f 91 108 92
f 92 108 94
f 85 102 98
f 76 75 103
f 100 104 57
f 73 89 88
f 89 87 109
f 89 109 110
f 78 105 106
f 93 108 91
f 83 96 112
f 83 112 80
f 95 94 112
f 95 112 96
f 99 100 86
f 89 110 111
f 89 105 88
f 105 89 111
f 93 106 108
f 101 115 107
f 94 108 113
f 94 113 112
f 75 98 103
f 103 98 116
f 103 117 118
f 99 103 118
f 99 119 100
f 100 119 109
f 100 109 104
f 87 104 109
f 106 105 114
f 80 112 101
f 107 121 97
f 102 97 121
f 102 121 98
f 118 119 99
f 110 120 111
f 106 114 108
f 98 121 116
f 116 117 103
f 111 124 105
f 119 120 110
f 112 122 101
f 122 115 101
f 115 123 107
f 123 121 107
f 112 113 122
f 116 123 125
f 105 124 114
f 110 109 119
f 111 120 126
f 122 127 115
f 115 128 123
f 121 123 116
f 116 125 117
f 118 129 119
f 119 129 120
f 111 126 124
f 127 128 115
f 108 114 113
f 113 127 122
f 117 129 118
f 123 128 125
f 113 114 127
f 117 125 129
f 120 129 126
f 126 127 124
f 125 127 129
f 127 114 124
f 128 127 125
f 126 129 127

o geometry_1
v -0.00488395 0.00472163 0.00342412
v -0.00484544 0.00472163 0.00361372
v -0.00482987 0.00942492 0.00376282
v -0.00488395 0.00943608 0.00342412
v -0.00367450 0.00016586 0.00337247
v -0.00367450 0.00016586 0.00371870
v -0.00483069 0.00472163 0.00368573
v -0.00464632 0.00980798 0.00395917
v -0.00482659 0.00980798 0.00376751
v -0.00487740 0.00980798 0.00342412
v -0.00304929 0.00022289 0.00336836
v 0.00348717 -0.00054942 0.00333519
v 0.00308566 -0.00054942 0.00334840
v 0.00270545 -0.00054942 0.00341150
v 0.00270136 -0.00054942 0.00341238
v 0.00245881 -0.00054942 0.00354612
v 0.00245717 -0.00054942 0.00354739
v 0.00234901 -0.00054942 0.00379706
v 0.00233836 -0.00054942 0.00387014
v -0.00487658 0.00982037 0.00342412
v -0.00483725 0.01019103 0.00342412
v -0.00483561 0.01020219 0.00342412
v -0.00478890 0.01043897 0.00342412
v -0.00472826 0.01062244 0.00342412
v 0.00347242 0.01088401 0.00333871
v -0.00271660 0.00016586 0.00433465
v -0.00464878 0.00472163 0.00377240
v -0.00446851 0.01019103 0.00399918
v -0.00444638 0.01057533 0.00400476
v -0.00442016 0.01084310 0.00400114
v -0.00466107 0.01019103 0.00391015
v -0.00458323 0.00472163 0.00380273
v -0.00480611 0.01019103 0.00371860
v 0.00348717 0.00367412 0.00338988
v 0.00348717 -0.00054942 0.00369747
v 0.00284639 -0.00054942 0.00387014
v -0.00478398 0.01041665 0.00364904
v -0.00440787 0.01117657 0.00368475
v -0.00455537 0.01096706 0.00342412
v 0.00348717 0.00472163 0.00341747
v 0.00348717 0.00470552 0.00341698
v 0.00348717 0.00405717 0.00339927
v -0.00441852 0.01119392 0.00342412
v -0.00426611 0.01137863 0.00342412
v -0.00406700 0.01157698 0.00342412
v -0.00382363 0.01172698 0.00342412
v -0.00357453 0.01187450 0.00342412
v -0.00355978 0.01188318 0.00342412
v -0.00337377 0.01196624 0.00342412
v -0.00304929 0.01205177 0.00342412
v -0.00267645 0.01209888 0.00342412
v -0.00266580 0.01210012 0.00342412
v -0.00228231 0.01211499 0.00342412
v -0.00189883 0.01211499 0.00342412
v -0.00154484 0.01211375 0.00342412
v 0.00347242 0.01088401 0.00402980
v -0.00198815 0.00016586 0.00433465
v -0.00266498 0.00021917 0.00433465
v -0.00343277 0.01134268 0.00404330
v -0.00421121 0.01096583 0.00401356
v -0.00409076 0.01127078 0.00400495
v -0.00400062 0.01152491 0.00398245
v -0.00434724 0.01109723 0.00394019
v -0.00447670 0.01096583 0.00380616
v 0.00348717 0.00328982 0.00380860
v -0.00006580 0.00021173 0.00433465
v 0.00347242 0.01057533 0.00402100
v -0.00404569 0.01156086 0.00372701
v 0.00348717 0.00472163 0.00382044
v -0.00351389 0.01184351 0.00379686
v -0.00332215 0.01194764 0.00379686
v -0.00304929 0.01200590 0.00379686
v -0.00266580 0.01204805 0.00379686
v -0.00228231 0.01205921 0.00379686
v -0.00154484 0.01205921 0.00379686
v 0.00346833 0.01088401 0.00402990
v -0.00006580 0.00062950 0.00433465
v 0.00348717 0.00330717 0.00380899
v 0.00348717 0.00367412 0.00381565
v 0.00348717 0.00369023 0.00381584
v 0.00348717 0.00407453 0.00381799
v -0.00154484 0.01196252 0.00402286
v -0.00154484 0.01172698 0.00405309
v -0.00247078 0.00040512 0.00433465
v -0.00266580 0.01172698 0.00405084
v -0.00304929 0.01172698 0.00403939
v -0.00385067 0.01137615 0.00402031
v -0.00374579 0.01158566 0.00400867
v -0.00326479 0.01192657 0.00399615
v -0.00304929 0.01194144 0.00400916
v -0.00266580 0.01195880 0.00402061
v -0.00228231 0.01196252 0.00402286
v -0.00151534 0.00062950 0.00433465
v -0.00228231 0.01172698 0.00405318
v -0.00246586 0.00040884 0.00433465
v -0.00229952 0.00049190 0.00433465
v -0.00204796 0.00056380 0.00433465
v -0.00189883 0.00060594 0.00433465
v -0.00340901 0.01171830 0.00401728
f 130 131 132
f 130 132 133
f 130 133 134
f 130 134 135
f 130 135 131
f 131 136 132
f 131 135 136
f 132 136 137
f 132 137 138
f 132 138 133
f 133 138 139
f 133 139 134
f 134 140 141
f 134 141 142
f 134 142 143
f 134 143 144
f 134 144 145
f 134 145 146
f 134 146 147
f 134 147 148
f 134 148 135
f 134 139 149
f 134 149 150
f 134 150 151
f 134 151 152
f 134 152 153
f 134 153 154
f 134 154 140
f 135 148 155
f 135 155 136
f 136 155 156
f 136 156 137
f 137 157 158
f 137 158 159
f 137 159 160
f 137 160 138
f 137 156 161
f 137 161 155
f 137 155 157
f 138 160 162
f 138 162 149
f 138 149 139
f 140 154 141
f 141 163 171
f 141 171 170
f 141 170 169
f 141 169 198
f 141 198 210
f 141 210 209
f 141 209 208
f 141 208 207
f 141 207 194
f 141 194 164
f 141 164 165
f 141 165 148
f 141 148 147
f 141 147 146
f 141 146 145
f 141 145 144
f 141 144 143
f 141 143 142
f 141 154 163
f 148 165 186
f 148 186 155
f 149 162 150
f 150 162 166
f 150 166 151
f 151 166 152
f 152 166 153
f 153 167 168
f 153 168 154
f 153 166 167
f 154 169 170
f 154 170 171
f 154 171 163
f 154 168 172
f 154 172 173
f 154 173 174
f 154 174 175
f 154 175 176
f 154 176 177
f 154 177 178
f 154 178 179
f 154 179 180
f 154 180 181
f 154 181 182
f 154 182 183
f 154 183 184
f 154 184 185
f 154 185 198
f 154 198 169
f 155 161 156
f 155 186 195
f 155 195 206
f 155 206 222
f 155 222 227
f 155 227 226
f 155 226 225
f 155 225 224
f 155 224 213
f 155 213 187
f 155 187 188
f 155 188 189
f 155 189 158
f 155 158 157
f 158 189 159
f 159 189 190
f 159 190 191
f 159 191 192
f 159 192 193
f 159 193 166
f 159 166 162
f 159 162 160
f 164 194 165
f 165 195 186
f 165 194 196
f 165 196 185
f 165 185 195
f 166 193 167
f 167 172 168
f 167 193 192
f 167 192 191
f 167 191 197
f 167 197 173
f 167 173 172
f 173 197 174
f 174 197 175
f 175 197 176
f 176 197 177
f 177 197 199
f 177 199 200
f 177 200 178
f 178 200 179
f 179 200 201
f 179 201 180
f 180 201 181
f 181 201 202
f 181 202 182
f 182 202 203
f 182 203 204
f 182 204 183
f 183 204 184
f 184 204 185
f 185 205 206
f 185 206 195
f 185 196 194
f 185 194 207
f 185 207 208
f 185 208 209
f 185 209 210
f 185 210 198
f 185 204 211
f 185 211 212
f 185 212 205
f 187 213 188
f 188 214 215
f 188 215 216
f 188 216 189
f 188 213 214
f 189 216 190
f 190 216 217
f 190 217 191
f 191 217 218
f 191 218 199
f 191 199 197
f 199 218 200
f 200 218 201
f 201 218 202
f 202 218 219
f 202 219 220
f 202 220 203
f 203 220 221
f 203 221 211
f 203 211 204
f 205 212 206
f 206 212 223
f 206 223 222
f 211 221 223
f 211 223 212
f 213 224 214
f 214 223 221
f 214 221 220
f 214 220 215
f 214 224 225
f 214 225 226
f 214 226 227
f 214 227 223
f 215 228 217
f 215 217 216
f 215 220 219
f 215 219 228
f 217 228 218
f 218 228 219
f 222 223 227

